<?xml version="1.0" encoding="UTF-8" standalone="no"?>
<svg xmlns:rdf="http://www.w3.org/1999/02/22-rdf-syntax-ns#" xmlns="http://www.w3.org/2000/svg" xml:space="preserve" height="181.57" viewBox="0 0 182.42412 181.56862" width="182.42" version="1.1" xmlns:cc="http://creativecommons.org/ns#" xmlns:dc="http://purl.org/dc/elements/1.1/"><g transform="matrix(1.25 0 0 -1.25 -485.73 872.94)"><g><path d="m90.195 28.723s-3.588 0.021-3.588 0.154c0 1.13 0.622 1.507 0.643 1.728 0.022 0.222-0.178 0.134-0.422 0.311-0.244 0.178-0.131 0.643-0.308 0.842-0.153 0.173-0.52 0.364-0.631 0.422-0.455-0.401-0.846-0.711-0.987-0.711-0.508 0-1.418 1.484-1.418 1.484v0.494l-1.765 1.547c-0.036 0.014-0.135 0.052-0.301 0.119-0.193 0.08-0.42 0.174-0.572 0.25-0.069 0.037-0.122 0.078-0.194 0.133-0.241 0.189-0.611 0.535-0.941 0.875-0.165 0.17-0.318 0.338-0.438 0.483-0.061 0.072-0.113 0.139-0.156 0.203-0.038 0.059-0.066 0.112-0.092 0.189l-0.004-0.002-0.005 0.01c-0.015 0.026-0.059 0.084-0.118 0.152-0.211 0.249-0.611 0.653-0.959 1.047-0.175 0.198-0.335 0.392-0.46 0.574-0.064 0.093-0.116 0.182-0.159 0.272-0.04 0.091-0.073 0.183-0.074 0.297v0.035c0.008 0.08 0.028 0.136 0.053 0.201 0.047 0.119 0.121 0.253 0.215 0.41 0.327 0.548 0.922 1.37 1.509 2.112 0.294 0.37 0.585 0.72 0.84 1.003 0.127 0.142 0.246 0.266 0.352 0.37 0.107 0.105 0.199 0.185 0.289 0.248 0.154 0.105 0.586 0.424 1.135 0.836 0.826 0.617 1.929 1.45 2.824 2.128 0.447 0.339 0.844 0.64 1.129 0.856 0.136 0.103 0.141 0.107 0.219 0.166-0.251 0.023-0.612 0.057-0.612 0.057s-1.324-0.379-2.082-0.442c-0.759-0.064-2.4 0.504-2.4 0.504s-1.579-0.568-2.399-0.504c-0.821 0.063-2.207 0.755-2.148 1.576 0.064 0.885 1.452 1.705 2.969 1.705 1.515 0 3.283-0.947 3.283-0.947s1.452 0.696 2.398 0.76c0.948 0.062 2.463-0.76 2.463-0.76s1.579 0.822 2.401 0.822c0.82 0 2.209-0.884 2.209-0.884s1.136 0.821 2.525 0.757c1.389-0.062 1.957-0.503 1.957-0.503s1.58 0.568 2.652 0.568c1.073 0 2.143-0.76 2.143-0.76s0.64 0.695 1.77 0.695c1.14 0 1.77-0.63 1.9-1.578 0.12-0.946-1.71-1.388-2.34-1.388s-3.221 0.379-3.221 0.379-1.514-0.442-2.271-0.442c-0.571 0-2.59 0.567-2.59 0.567s-0.322-0.123-0.615-0.233l-0.012-0.051c-0.001-0.007-0.167-0.688-0.463-1.453-0.149-0.382-0.329-0.785-0.543-1.14-0.216-0.355-0.46-0.667-0.777-0.856-1.005-0.589-3.038-1.726-3.039-1.726l-0.19-0.106-0.146 0.158c-0.005 0.007-0.094 0.101-0.205 0.186-0.055 0.041-0.116 0.08-0.17 0.105-0.046 0.023-0.078 0.027-0.098 0.03-0.038-0.015-0.114-0.051-0.209-0.11-0.349-0.21-0.931-0.633-1.445-1.009-0.258-0.189-0.498-0.368-0.69-0.504-0.096-0.07-0.179-0.128-0.248-0.174-0.033-0.024-0.063-0.041-0.091-0.059-0.029-0.017-0.052-0.032-0.088-0.049-0.078-0.032-0.155-0.043-0.223-0.043-0.134 0.002-0.237 0.035-0.32 0.057-0.069 0.021-0.107 0.029-0.131 0.031-0.016-0.024-0.037-0.06-0.065-0.127-0.053-0.128-0.112-0.3-0.175-0.455-0.033-0.077-0.064-0.151-0.108-0.222-0.022-0.037-0.048-0.072-0.082-0.108-0.034-0.035-0.076-0.074-0.142-0.101-0.084-0.033-0.337-0.13-0.561-0.246-0.111-0.058-0.215-0.122-0.275-0.172 0.015-0.019 0.016-0.022 0.037-0.045 0.198-0.22 0.613-0.608 0.97-0.932 0.18-0.164 0.346-0.312 0.467-0.42 0.121-0.107 0.196-0.174 0.198-0.174l0.087-0.076 0.006-0.117v-0.025c0.005-0.064 0.02-0.235 0.053-0.395 0.016-0.08 0.036-0.156 0.059-0.211 0.01-0.027 0.019-0.048 0.027-0.06l0.004-0.008 0.002-0.002 0.002-0.002c0.014-0.013 0.055-0.043 0.113-0.082 0.21-0.149 0.619-0.418 0.969-0.647 0.166-0.109 0.19-0.126 0.306-0.201 0.235 0.04 0.528 0.063 0.776-0.004 0.487-0.134 1.141-0.775 1.086-1.351-0.027-0.276-1.088-1.427-2.063-2.354l0.711-0.172s0.067-0.708 0.178-1.041c0.11-0.331 0.333-0.575 0.664-0.42 0.332 0.155 0.222 1.019 0.289 1.241 0.066 0.221 0.465-0.024 0.775-0.045 0.31-0.023 0.82 0.31 1.153 0.31 0.331 0 0.264-0.776 0.33-0.931 0.067-0.155 0.422-0.132 0.467 0.068 0.032 0.147 0.017 0.318-0.006 0.459l-0.793 1.164c-0.053 0.076-0.076 0.165-0.076 0.25 0 0.141 0.068 0.28 0.193 0.365 0.075 0.053 0.163 0.076 0.248 0.076 0.141 0 0.279-0.068 0.365-0.193l0.549-0.807c0.046 0.037 0.221 0.17 0.615 0.479 1.544 1.21 5.459 4.337 9.402 7.947 3.94 3.609 7.92 7.709 9.57 10.844l0.02-0.01c0.01 0.027 0.02 0.056 0.02 0.082l0.2-0.039c-0.34-1.705-1.69-3.837-3.52-6.094-5.49-6.761-15.33-14.612-15.342-14.623l0.633-0.929c0.052-0.075 0.078-0.163 0.078-0.248 0-0.142-0.07-0.281-0.195-0.366-0.075-0.052-0.162-0.078-0.248-0.078-0.14 0-0.279 0.069-0.366 0.194l-0.164 0.242-1.961-1.662zm2.491 1.502c0.033 0 0.065 0.007 0.095 0.027 0.048 0.034 0.073 0.086 0.073 0.141 0 0.032-0.008 0.065-0.028 0.093l-2.148 3.151c-0.033 0.047-0.084 0.074-0.139 0.074-0.032 0-0.065-0.009-0.094-0.029-0.047-0.033-0.074-0.085-0.074-0.139 0-0.032 0.009-0.064 0.027-0.094 0.001 0 0-0.001 0-0.002l2.149-3.15c0.032-0.049 0.085-0.072 0.139-0.072zm-0.385 1.515c0.009 0.007 0.062 0.051 0.181 0.149 0.963 0.777 5.31 4.332 9.568 8.476 2.13 2.071 4.24 4.29 5.89 6.377 1.39 1.758 2.45 3.422 2.93 4.822-2.11-3.559-6.73-8.085-10.944-11.822-4.395-3.89-8.261-6.85-8.358-6.926l0.733-1.076zm-8.203 1.897l2.267 2.238c-0.148 0.096-0.251 0.162-0.519 0.338-0.208 0.136-0.42 0.278-0.596 0.396-0.089 0.06-0.169 0.114-0.232 0.161-0.067 0.046-0.115 0.08-0.155 0.113-0.117 0.104-0.164 0.217-0.207 0.332-0.06 0.171-0.088 0.356-0.107 0.502-0.01 0.078-0.008 0.092-0.012 0.138-0.068 0.061-0.375 0.331-0.769 0.692-0.218 0.2-0.439 0.408-0.618 0.588-0.09 0.089-0.169 0.171-0.234 0.244-0.032 0.036-0.061 0.071-0.086 0.103-0.026 0.034-0.048 0.066-0.07 0.11-0.028 0.054-0.041 0.118-0.041 0.178 0.001 0.11 0.042 0.196 0.086 0.259 0.081 0.112 0.179 0.183 0.285 0.254 0.159 0.105 0.343 0.195 0.502 0.266 0.14 0.061 0.243 0.102 0.304 0.127 0.01 0.014 0.032 0.052 0.059 0.113 0.045 0.106 0.097 0.251 0.15 0.391 0.028 0.071 0.056 0.14 0.088 0.207 0.033 0.067 0.067 0.129 0.119 0.191 0.048 0.059 0.115 0.109 0.182 0.137 0.051 0.02 0.097 0.021 0.143 0.025l0.39 0.703 0.004 0.006 0.004 0.004c0.01 0.015 0.037 0.06 0.061 0.113 0.023 0.054 0.044 0.116 0.043 0.159-0.002 0.035-0.009 0.05-0.024 0.066-0.006 0.008-0.033 0.021-0.088 0.021-0.076 0.002-0.185-0.026-0.267-0.056-0.043-0.015-0.079-0.03-0.104-0.041l-0.029-0.016-0.01-0.002-0.121 0.244c0.004 0.002 0.073 0.036 0.172 0.071 0.1 0.035 0.227 0.074 0.359 0.074 0.093 0 0.198-0.019 0.282-0.102 0.076-0.075 0.104-0.176 0.103-0.259-0.001-0.12-0.044-0.222-0.08-0.299-0.034-0.07-0.06-0.109-0.068-0.121l-0.008-0.014-0.324-0.586c0.019-0.005 0.049-0.007 0.066-0.012 0.081-0.023 0.144-0.038 0.168-0.037h0.008c0.011 0.006 0.076 0.047 0.16 0.106 0.309 0.215 0.907 0.668 1.461 1.064 0.279 0.199 0.546 0.383 0.766 0.522 0.11 0.07 0.207 0.128 0.294 0.172 0.045 0.022 0.087 0.042 0.129 0.058 0.045 0.015 0.088 0.03 0.161 0.031 0.138 0 0.255-0.043 0.359-0.093 0.154-0.075 0.279-0.175 0.373-0.256 0.057 0.032 0.059 0.033 0.156 0.088 0.619 0.347 1.953 1.097 2.699 1.535 0.184 0.105 0.396 0.349 0.584 0.664 0.285 0.471 0.525 1.087 0.69 1.58 0.069 0.209 0.118 0.378 0.16 0.523h-0.186c-0.298-0.077-0.591-0.138-0.834-0.138-0.33 0-0.9 0.065-1.46 0.138h-4.383c-0.069-0.052-1.188-0.903-2.457-1.863-0.654-0.494-1.327-1.001-1.879-1.414-0.553-0.414-0.979-0.73-1.155-0.85-0.052-0.036-0.157-0.127-0.281-0.252-0.435-0.441-1.131-1.297-1.713-2.083-0.29-0.394-0.553-0.773-0.742-1.073-0.094-0.15-0.169-0.28-0.219-0.379-0.025-0.05-0.044-0.091-0.054-0.119l-0.008-0.025c0.003-0.017 0.023-0.074 0.066-0.147 0.078-0.133 0.217-0.314 0.379-0.506 0.245-0.286 0.544-0.597 0.789-0.861 0.123-0.132 0.232-0.252 0.319-0.357 0.042-0.052 0.08-0.099 0.113-0.147 0.03-0.046 0.056-0.09 0.078-0.162l0.002 0.002c0-0.004 0.028-0.05 0.07-0.105 0.152-0.204 0.484-0.56 0.799-0.864 0.159-0.152 0.313-0.295 0.44-0.404 0.063-0.055 0.12-0.099 0.164-0.133l0.054-0.041 0.018-0.01 0.006-0.003c0.124-0.063 0.347-0.157 0.533-0.233 0.094-0.037 0.179-0.074 0.24-0.098l0.1-0.039 0.045-0.017 2.088-1.83zm-28.151 20.115v0.082c-0.361 2.92-0.586 6.739-0.586 11.199 0.002 11.974 1.619 28.501 6.674 43.967 2.53 7.74 5.919 15.21 10.416 21.7 4.498 6.49 10.112 12.01 17.069 15.8l0.158 0.09 1.299 0.16 0.273-0.15c6.958-3.79 12.57-9.3 17.07-15.8 6.74-9.74 11-21.67 13.59-33.405s3.5-23.277 3.5-32.258c0-4.494-0.23-8.345-0.6-11.274v-0.111h-68.863zm83.133 13.658v0.004c-0.14 0-0.28 0.014-0.44 0.037l-0.3-0.021c-0.05-0.004-0.11-0.006-0.19-0.006-0.67 0.001-2.4 0.129-4.09 0.422-0.84 0.146-1.67 0.334-2.36 0.57-0.34 0.118-0.64 0.248-0.9 0.393-0.25 0.146-0.45 0.307-0.58 0.496-1.76 2.562-2.26 5.815-2.26 9.017 0 1.993 0.19 3.965 0.41 5.742 0.71 5.924 2.72 12.449 2.72 18.476 0 2.82-0.44 5.52-1.65 8.01-0.8 0.08-1.71 0.24-2.75 0.53l-0.02 0.01-0.02 0.01c-0.03 0.02-1.49 1.08-2.52 5.14-0.26 1.02-0.65 3.4-1.52 6.41-1.29 4.52-3.64 10.46-8.13 15.31-4.48 4.86-11.11 8.63-21 8.84h-0.08l-0.037 0.07c-0.002 0.01-0.038 0.1-0.068 0.22-0.115 0.22-0.201 0.47-0.25 0.75-0.063 0.36-0.08 0.74-0.08 1.06 0 0.38 0.022 0.59 0.029 0.67-0.672 0.07-1.507 0.13-2.599 0.13-1.145 0-1.996-0.05-2.694-0.12 0.015-0.07 0.039-0.14 0.039-0.39 0-0.47-0.102-1.24-0.594-2.18l-0.005 0.01c-0.02-0.04-0.037-0.09-0.057-0.12-0.079-0.12-0.156-0.19-0.16-0.2l-0.024-0.02h-0.031c-12.094-1.77-19.351-8.36-23.594-14.52-2.121-3.08-3.485-6.05-4.32-8.25-0.017-0.04-0.026-0.08-0.043-0.12 0.039-0.02 0.071-0.03 0.184-0.08 0.237-0.11 0.603-0.28 0.947-0.41 0.171-0.07 0.337-0.13 0.477-0.17 0.138-0.04 0.255-0.07 0.31-0.07l0.02 0.01h0.002l0.002-0.01 0.003-0.01 0.016-0.03 0.027 0.06 0.084-0.26c0.318-0.97 0.448-1.87 0.448-2.71-0.003-3.75-2.617-6.04-2.625-6.05l-0.016-0.01-0.018-0.01c-0.097-0.03-0.232-0.03-0.416-0.04-0.838 0-2.505 0.21-2.619 0.23-2.707-3.92-3.557-8.34-3.558-12.93 0-5.588 1.257-11.426 1.92-16.9 0.215-1.777 0.41-3.751 0.41-5.74-0.001-3.199-0.504-6.447-2.258-9-0.2-0.289-0.563-0.534-1.029-0.756-1.399-0.662-3.741-1.08-5.348-1.082-0.68 0.003-1.223 0.072-1.537 0.252l-0.119 0.069 0.002 0.003c-0.212 0.104-0.491 0.26-0.766 0.584-0.359 0.422-0.663 1.084-0.662 2.112 0 0.326 0.031 0.69 0.1 1.094 0.143 0.85 0.195 1.653 0.195 2.376 0 1.018-0.104 1.877-0.209 2.479-0.053 0.301-0.107 0.54-0.147 0.701-0.018 0.081-0.033 0.143-0.044 0.184-0.013 0.042-0.018 0.062-0.018 0.062-0.004 0.009-0.215 0.693-0.215 1.573 0 0.857 0.202 1.91 1.022 2.677l0.166-0.111c-0.002-0.004-0.016-0.047-0.016-0.135 0-0.305 0.187-1.154 1.846-2.5 0.035 0.015 0.106 0.045 0.273 0.121 0.303 0.139 0.769 0.361 1.195 0.606 0.408 0.233 0.77 0.492 0.922 0.697-0.469 7.544-3.179 16.493-3.181 24.064 0.001 2.7 0.346 5.22 1.263 7.45 0.917 2.22 2.408 4.15 4.692 5.64l0.058-0.09-0.009 0.1c0.366 0.04 0.731 0.05 1.093 0.05 0.662 0 1.311-0.07 1.955-0.18 0.013 0.04 0.045 0.13 0.112 0.36 0.236 0.78 0.706 2.47 0.705 3.45 0 0.07-0.002 0.12-0.006 0.18-1.364 0.82-2.36 1.62-2.363 1.62l-0.047 0.04 0.01 0.06c2.26 12.32 9.164 19.76 16.058 24.11 3.448 2.17 6.892 3.58 9.756 4.44s5.142 1.18 6.273 1.18c0.243 0 0.434-0.02 0.573-0.05 0.028 0 0.047-0.01 0.072-0.02v1.67c0 0.14 0.051 0.28 0.139 0.39 0.156 0.21 0.417 0.37 0.755 0.51 1.014 0.41 2.752 0.6 4.497 0.6 1.327 0 2.655-0.11 3.658-0.33 0.502-0.12 0.921-0.26 1.226-0.43 0.152-0.08 0.277-0.18 0.366-0.28 0.084-0.11 0.134-0.23 0.138-0.36h0.002l0.002-0.01c0.003-0.02 0.103-0.65 0.172-1.58 0.181-0.01 6.628-0.29 13.968-3.79 7.44-3.55 15.75-10.4 19.18-23.57v-0.01s0.06-0.2 0.17-0.57c0.37-1.29 1.33-4.52 2.39-7.48 0.05-0.13 0.1-0.25 0.15-0.38l1.64-0.17c0.04 0 0.07 0.02 0.12 0.01 0.1 0 0.23-0.01 0.37-0.05h0.01l0.09-0.03 0.03-0.02 0.02-0.01c3.33-3.29 4.38-7.84 4.38-12.87 0-4.475-0.83-9.346-1.67-14.08-0.63-3.601-1.27-7.122-1.53-10.33 0.18 0.064 0.53 0.192 1.16 0.383 0.78 0.234 1.69 0.47 2.24 0.473 0.04 0 0.07-0.009 0.11-0.012 0.01 0.001 0.03 0.006 0.04 0.006 0.03 0 0.07-0.017 0.1-0.021 0.01-0.002 0.01 0 0.02-0.002v-0.004c0.18-0.028 0.38-0.104 0.63-0.28 0.31-0.215 0.7-0.556 1.18-1.076 1.65-1.775 1.83-3.324 1.83-3.922 0-0.166-0.01-0.26-0.01-0.263l-0.02-0.106-0.1 0.02c-0.01 0.002-1.45 0.276-3.06 1.295 0.42-0.922 0.87-1.811 1.06-2.278 0.62-1.565 0.82-2.79 0.82-3.74 0-0.634-0.09-1.143-0.21-1.547-0.11-0.352-0.3-0.705-0.6-0.972-0.3-0.268-0.72-0.444-1.26-0.444z" transform="matrix(.8 0 0 -.8 388.58 698.35)"/><path d="m434.73 653.82h52.316c0.20376-2.0842 0.33364-4.6386 0.33281-7.575 0.002-9.443-1.2855-22.544-5.2625-34.702-1.988-6.079-4.6465-11.921-8.1375-16.959-3.4452-4.9728-7.6996-9.1544-12.922-12.047l-0.2375 0.0297c-5.2645 2.8942-9.5461 7.0979-13.012 12.1-5.237 7.557-8.5985 16.927-10.638 26.184-2.04 9.256-2.7625 18.396-2.7625 25.477 0 2.8964 0.12512 5.423 0.32343 7.4922z" fill="#fff"/><path d="m459.23 671.51-0.37-0.651 0.14-0.147 0.336 0.444 1.507 0.053-0.124 0.354-1.489-0.053z"/><path d="m472.54 629.24c-0.196 0-0.335 0.252-0.475 0.168-0.139-0.084-0.363-0.977-0.558-1.312-0.196-0.336-0.279-1.787-0.279-1.982 0-0.15-0.555-1.931-0.816-2.761 0.073 0.558 0.143 1.029 0.173 1.237 0.088 0.619-0.089 1.945-0.443 3.182-0.353 1.237-0.618 0.619-0.706 1.944-0.089 1.326-0.884 6.187-1.238 6.717-0.353 0.53-3.27 1.326-3.535 1.679-0.265 0.354 0 0.619-0.088 1.061s-0.354 0.884-0.354 1.237-0.353 2.386-0.53 3.358c-0.177 0.973-2.209 2.298-2.209 2.298s-0.708 1.414-1.238 2.298-2.209 1.679-2.209 1.679-0.089-0.619-0.089-0.972 0.177-0.972 0.177-0.972l-0.972 0.795-0.088-0.618-0.354 0.088s0.442-1.768 0.619-2.298c0.176-0.53 1.502-1.237 1.502-1.237s-0.442-1.237-0.53-2.298 0.353-2.386 0.177-2.916c-0.177-0.531-0.089-1.68-0.265-1.945-0.177-0.265-1.326-0.53-2.122-1.06-0.795-0.531-0.441-2.74-0.618-3.093-0.177-0.354-0.442-0.531-0.619-0.796s0.089-1.414 0-1.679c-0.088-0.265-0.265-0.442-0.353-0.884-0.089-0.442 0.265-0.884-0.266-1.237-0.53-0.354-1.06 0.177-1.413 0.618 0 0-0.817 0.224-1.157 0.465-0.578 5.253-1.073 9.682-1.073 9.682s-0.576-2.027-1.034-5.827c-0.43-0.107-0.296-1.074-0.713-1.491-0.442-0.442-0.619-1.414-0.531-2.033 0.043-0.302 0.423-0.687 0.842-1.014-0.198-3.326-0.238-7.397 0.085-12.15 0.976-14.335 5.779-23.791 5.779-23.791s-1.501 17.862-1.576 19.663c-0.037 0.896-0.744 7.5-1.444 13.907 0.878-0.6 2.76-1.829 3.119-1.829 0.442 0 0.619 0.441 0.972 0.618 0.354 0.177 0.354-0.707 0.708-0.972 0.353-0.265 0.618 0.088 0.618 0.088v-2.651s-0.088-0.618-0.353-0.884c-0.265-0.265-0.089-1.414-0.177-1.855-0.088-0.443-0.354-2.033-0.53-2.475-0.177-0.442 0.176-2.209-0.177-2.828-0.354-0.619-0.53-2.121-0.177-2.386 0.354-0.265 0.796-0.089 0.796-0.089s0.088-1.856 0.088-2.386 0.619-2.386 0.619-2.916c0-0.531 0.088-2.829 0-3.536-0.089-0.707 0.441-3.446 0.441-3.977 0-0.53 0.089-1.502-0.176-2.297-0.265-0.796-0.53-1.856-1.149-2.475s-0.884-2.033-0.442-2.298 2.298 0.265 2.563 0.884c0.265 0.618 1.149 0.972 1.679 1.414s0.53 0.707 0.707 1.149-0.354 1.06-0.53 1.502c-0.177 0.442 0 3.624-0.089 4.331-0.088 0.707 0.531 1.149 0.531 1.856s-0.442 1.59-0.531 2.121c-0.088 0.53 0.354 1.944 0.531 2.74 0.176 0.795 0.442 1.325 0.442 2.563 0 1.237 0.53 1.944 1.06 1.944s0.884-0.265 1.149-0.707 0.177-1.856 0.177-2.386v-3.005c0-0.531-0.442-0.973-0.442-1.856 0-0.884 0.353-3.624 0.353-4.154s-0.441-1.414-0.441-1.856-0.089-1.856 0-2.298c0.088-0.442 1.06-1.414 1.679-1.944 0.618-0.53 2.121-1.149 2.474-0.707 0.354 0.442 0.089 1.414-0.088 1.944s-1.149 1.856-1.414 2.386c-0.266 0.531 0.53 2.828 0.707 3.889s0.353 5.303 0.265 5.745 0.354 0.795 0.53 1.325c0.177 0.531 0.265 2.121 0.265 2.475 0 0.353 0.884 1.856 0.973 2.474 0.088 0.619 0 1.503 0 2.121 0 0.619 0.618 0 0.972 0.442 0.353 0.442 0.177 0.708 0.177 1.149 0 0.442 0.618 0.177 0.795 0.884s-0.265 1.414-0.442 2.121l-0.005 0.026c0.346 1.16 1.623 5.435 1.672 5.628 0.055 0.223 0.251 0.279 0.39 0.391 0.14 0.111 0.168 0.53 0.168 0.726 0 0.195 0.195 0.39 0.335 0.558s0.474 1.172 0.474 1.368c0 0.195-0.53 0.195-0.725 0.195"/><path d="m88.602 29.055l0.066 0.244 0.687-0.022v-0.222h-0.753zm-1.164 0.027c-0.077-0.01-0.208 0.061-0.342 0.195-0.133 0.133-0.023 0.575 0.22 0.575 0.848 0 0.887-0.132 0.932-0.332 0.044-0.199-0.377-0.133-0.533-0.2 0 0-0.176-0.11-0.221-0.199-0.011-0.022-0.031-0.036-0.056-0.039zm1.693 0.488c-0.273-0.059-0.596 0.416-0.596 0.416s-0.553 0.443-0.221 0.709c0.333 0.265 0.774-0.422 0.774-0.422s0.39-0.427 0.156-0.642c-0.036-0.033-0.074-0.052-0.113-0.061zm0.668 0.522c-0.273-0.059-0.596 0.416-0.596 0.416s-0.553 0.441-0.221 0.707c0.333 0.266 0.776-0.42 0.776-0.42s0.388-0.428 0.154-0.643c-0.036-0.033-0.074-0.052-0.113-0.06zm0.687 0.553c-0.274-0.059-0.595 0.416-0.595 0.416s-0.554 0.442-0.223 0.709c0.332 0.266 0.777-0.422 0.777-0.422s0.387-0.427 0.155-0.643c-0.036-0.033-0.075-0.052-0.114-0.06zm-6.168 1.964c-0.087 0.009-0.164 0.028-0.179 0.051-0.033 0.046 0.037 0.3 0.099 0.35 0.063 0.05 0.25 0.009 0.317-0.026 0.143-0.077 0.009-0.357 0.009-0.357-0.059-0.023-0.158-0.026-0.246-0.018zm13.178 15.393c-0.997 0.036-2.447 0.519-2.447 0.519s1.326 1.327 3.094 1.706c1.767 0.378 2.337-0.442 2.337-0.442s-1.642-1.641-2.589-1.767c-0.119-0.016-0.252-0.021-0.395-0.016zm-10.017 0.047c-0.858 0.006-1.584 0.537-1.584 0.537s1.452 1.578 3.724 1.578c1.278 0 1.641-0.633 1.641-0.633s-2.398-1.262-3.408-1.451c-0.127-0.024-0.251-0.032-0.373-0.031zm-8.782 0.031c-0.757 0.063-1.515 0.38-1.705 0.885s0.506 1.641 2.526 1.389c2.021-0.253 2.398-0.758 2.398-0.758s-2.461-1.58-3.219-1.516zm8.483 13.022s-0.16 0.891 0.031 0.986c0.19 0.095 0.732 0.254 0.732 0.254s-0.317-0.446-0.445-0.541c-0.127-0.095-0.318-0.699-0.318-0.699zm0.414 0.031s0.096 0.288 0.222 0.414c0.128 0.127 0.509 0.286 0.381 0.096-0.126-0.192-0.603-0.51-0.603-0.51zm0.953 0.924l0.476 1.111 0.827 0.955s-0.094-0.637-0.286-0.891c-0.19-0.255-1.017-1.175-1.017-1.175zm-1.082 0.699s0.161 0.508 0.351 0.699c0.192 0.19 0.954 0.287 0.954 0.287s-0.193-0.509-0.319-0.605c-0.127-0.095-0.986-0.381-0.986-0.381zm-1.334 0.062s1.24 1.305 1.367 1.559c0.128 0.255 0.891 1.908 0.891 1.908s-0.192-2.035-0.446-2.258c-0.253-0.222-1.812-1.209-1.812-1.209zm-0.35 0.223s0.03 0.54 0.094 0.795c0.064 0.254 0.605 0.414 0.605 0.414s-0.19 0.508-0.126 0.762c0.063 0.255 0.73 0.351 0.73 0.351s-0.159 0.191-0.096 0.381c0.064 0.191 0.701 0.477 0.701 0.477s-0.541-1.334-0.636-1.653c-0.097-0.317-1.272-1.527-1.272-1.527zm2.862 1.367s-0.002 0.668 0.189 1.049 0.732 0.763 1.24 0.35c0.509-0.414-1.429-1.399-1.429-1.399zm1.652 0.129s-0.126 0.412 0.033 0.604c0.159 0.191 0.635 0.731 0.572 0.445s-0.605-1.049-0.605-1.049zm0.223 2.256s-0.763 0.001-1.018 0.127c-0.254 0.127-0.603 0.383-0.316 0.51 0.286 0.127 1.143-0.318 1.461-0.285 0.291 0.028 1.21 0.317 1.369 0.031 0.158-0.286-1.274-0.383-1.496-0.383zm48.562 0.826c-0.21 0-0.45 0.035-0.71 0.1-1.25 1.019-2.08 2.326-2.61 3.877-0.53 1.571-0.75 3.388-0.75 5.381 0 0.87 0.05 1.779 0.12 2.711 0.07 0.025 0.09 0.032 0.24 0.082 0.26 0.086 0.61 0.204 1 0.32 0.66 0.199 1.41 0.386 1.92 0.437-0.02-0.025-0.05-0.045-0.06-0.072-0.08-0.155-0.11-0.327-0.13-0.437-0.02-0.115-0.03-0.236-0.03-0.364 0-0.856 0.42-1.995 0.89-3.06 0.46-1.063 0.98-2.049 1.17-2.551 0.61-1.545 0.81-2.746 0.81-3.666 0-0.614-0.08-1.103-0.2-1.488-0.1-0.325-0.27-0.642-0.54-0.877-0.27-0.234-0.62-0.392-1.12-0.393zm-1.1 0.088c-0.62 0.011-1.88 0.102-3.25 0.309-1.45 0.216-2.98 0.562-3.79 1.031-0.23 0.132-0.4 0.273-0.49 0.412-1.72 2.49-2.22 5.688-2.22 8.863 0 1.974 0.19 3.939 0.41 5.711 0.71 5.89 2.72 12.422 2.72 18.507 0 2.77-0.43 5.45-1.58 7.93h0.18c0.34 0 0.87 0.02 1.42 0.07 0.08 0.01 0.16 0.01 0.24 0.02 0.26 0.03 0.52 0.07 0.76 0.13 0.49 0.1 0.85 0.26 1.17 0.42 0.13 0.06 0.25 0.13 0.36 0.19 0.04 0.03 0.1 0.06 0.14 0.08 0 0.01 0 0.01 0.01 0.01 0.17 0.11 0.25 0.18 0.33 0.26 0.08 0.07 0.12 0.11 0.14 0.13 0.11 0.02 0.2 0.07 0.25 0.16 0.07 0.11 0.09 0.23 0.09 0.36 0 0.29-0.09 0.64-0.23 1.03-0.13 0.38-0.31 0.8-0.48 1.18-0.36 0.77-0.71 1.41-0.71 1.41v0.01l-0.01 0.02c-0.01 0.01-0.02 0.03-0.04 0.06-0.03 0.05-0.07 0.13-0.1 0.21-0.08 0.18-0.15 0.39-0.15 0.55 0 0.09 0.02 0.15 0.06 0.18 0.02 0.02 0.06 0.04 0.11 0.06l0.07-0.01 0.01 0.02h0.04c0.08 0 0.18-0.01 0.31-0.04l0.04-0.02c3.24-3.2 4.29-7.66 4.29-12.65 0-4.439-0.83-9.298-1.67-14.031-0.83-4.733-1.67-9.341-1.67-13.302 0-2.013 0.22-3.859 0.76-5.471 0.51-1.494 1.32-2.774 2.48-3.799zm-92.107 0.322c-0.573-0.001-1.036 0.062-1.309 0.172 2.692 2.583 3.581 6.213 3.581 10.358-0.003 7.99-3.259 17.932-3.256 26.181 0 2.68 0.342 5.17 1.246 7.36 0.899 2.19 2.356 4.07 4.594 5.53 0.351 0.03 0.702 0.05 1.05 0.05 1.864 0 3.654-0.44 5.377-1.32-4.008-4.44-5.185-9.65-5.183-15.05 0-5.626 1.262-11.472 1.922-16.933 0.215-1.774 0.408-3.739 0.408-5.715 0-3.179-0.504-6.384-2.223-8.883-0.16-0.236-0.499-0.477-0.949-0.689-0.449-0.214-1.008-0.403-1.613-0.561-1.208-0.315-2.596-0.5-3.645-0.5zm45.131 0.008c-0.564-0.004-1.184 0.013-1.406 0.092-0.447 0.159-0.669 0.509-0.987 1.209-0.317 0.699 0.317 1.874 0.35 2.129 0.031 0.254-0.16 1.05 0.062 1.719 0.223 0.667 1.337 0.888 1.75 0.888 0.414 0 1.526-0.285 1.78-0.666 0.255-0.382 0.063-1.749 0.095-2.004 0.032-0.253 0.288-0.254 0.288-0.699s-0.288-0.794-0.51-0.668c-0.223 0.128-0.922 0.285-0.922 0.285s-0.031 0.288-0.031 0.51c0 0.223 0.349 0.572 0.476 0.73 0.128 0.159 0.35 0.478 0.158 0.668-0.19 0.192-0.349-0.191-0.572-0.191-0.222 0-0.509 0.35-0.476 0.477 0.031 0.127 0.796 0.097 0.986 0.129 0.191 0.032 0.254 0.19 0.096 0.318-0.159 0.127-0.637-0.191-0.733 0.062-0.095 0.255-0.349 0.35-0.699 0.319-0.35-0.033-0.254-0.255-0.508-0.35-0.255-0.095-0.667-0.031-0.541-0.254 0.128-0.224 0.858 0.031 0.826-0.224-0.032-0.254 0.032-0.222-0.158-0.317-0.191-0.095-0.764 0.222-0.764-0.095 0-0.319 0.35-0.795 0.795-0.764 0.445 0.032 0.541-0.253 0.573-0.508 0.031-0.254-0.129-0.637-0.319-0.637-0.191 0-0.667 0.096-0.857 0.096-0.191 0-0.731-0.191-0.795-0.541-0.064-0.349 0.539-0.477 0.857-0.477s0.604 0.223 0.795 0.223c0.19 0 0.414-0.221 0.764-0.254 0.35-0.031 0.637 0.096 0.637 0.096s0.475-0.446 0.539-0.701c0.063-0.255-0.477-0.573-0.477-0.573s-0.508-0.023-1.072-0.027zm-46.629 0.262c-0.199 0.091-0.486 0.239-0.764 0.566-0.326 0.385-0.612 0.991-0.613 1.979 0 0.314 0.028 0.667 0.096 1.06 0.145 0.863 0.199 1.677 0.199 2.41 0 2.064-0.427 3.479-0.428 3.485l-0.008 0.029c-0.006 0.019-0.013 0.049-0.023 0.086-0.019 0.075-0.045 0.186-0.07 0.322-0.053 0.273-0.104 0.653-0.104 1.076 0 0.758 0.169 1.644 0.778 2.334 0.032-0.432 0.329-1.3 1.955-2.603l0.046-0.037 0.057 0.023c0.003 0.002 1.181 0.497 1.965 1.022 0.166 0.111 0.302 0.223 0.42 0.336 0.034-0.619 0.059-1.231 0.058-1.828-0.001-4.146-0.891-7.729-3.564-10.26zm43.68 3.931c-0.079 0-0.145 0.108-0.145 0.239 0 0.132 0.066 0.238 0.145 0.238 0.078 0 0.142-0.106 0.142-0.238 0-0.131-0.064-0.239-0.142-0.239zm0.062 1.081c-0.097 0-0.174 0.129-0.174 0.287s0.077 0.285 0.174 0.285c0.096 0 0.176-0.127 0.176-0.285s-0.08-0.287-0.176-0.287zm5.533 0.191c-0.148 0-0.269 0.185-0.269 0.414 0 0.228 0.121 0.412 0.269 0.412 0.149 0 0.27-0.184 0.27-0.412 0-0.229-0.121-0.414-0.27-0.414zm0.254 1.367c-0.096 0-0.174 0.108-0.174 0.24s0.078 0.237 0.174 0.237c0.098 0 0.176-0.105 0.176-0.237s-0.078-0.24-0.176-0.24zm-3.14 0.016c-0.596-0.008-1.166 0.113-1.166 0.113s0.125 1.493 1.365 1.43c0.604-0.032 1.241-0.223 1.113-0.891-0.097-0.511-0.717-0.645-1.312-0.652zm51.486 0.441c-0.04 0.01-0.09 0.02-0.15 0.037-0.18 0.045-0.43 0.117-0.73 0.225-0.6 0.214-1.41 0.572-2.24 1.141l-0.01-0.008c-0.45 1.041-0.85 2.153-0.85 2.933 0 0.117 0.01 0.226 0.03 0.326 0.02 0.083 0.03 0.188 0.07 0.286 0.03 0.097 0.09 0.183 0.15 0.23 0.04 0.026 0.09 0.038 0.15 0.043 0.03-0.004 0.07-0.003 0.1-0.01v0.002c0.13-0.015 0.31-0.076 0.56-0.252 0.29-0.201 0.67-0.535 1.14-1.049 1.62-1.737 1.79-3.225 1.79-3.781 0-0.065-0.01-0.085-0.01-0.123zm-47.248 1.42c-0.604-0.095-0.987 3.053-1.272 3.943-0.286 0.892-1.717 1.686-2.322 1.686-0.604 0-1.429-0.318-2.224-0.891-0.795-0.571-1.051-2.385-1.082-2.767-0.032-0.381-0.731-1.653-0.731-1.653s-0.923 0.223-1.336 0.381c-0.414 0.159-1.4 1.4-1.59 1.782-0.191 0.382-0.16 1.748-0.16 2.097 0 0.35-0.507 3.085-0.73 3.403s-0.477 0.827-0.032 1.335c0.925 1.059 1.432-0.252 1.622-0.507 0.191-0.254 0.286-3.054 0.16-3.721-0.128-0.668 0.348-1.812 0.857-1.748s0.319 2.512 0.192 4.102c-0.128 1.59-0.07 6.602 0.222 6.804 0.414 0.286 1.462 0.35 1.557-0.476 0.134-1.159 0.318-0.893 0.795-0.955 0.477-0.064 0.096 0.986 0.383 1.75 0.286 0.762 1.398 0.793 1.843 0.634 0.445-0.16 0.54-0.732 0.731-0.763 0.191-0.032 0.35 0.7 0.668 0.826 0.318 0.127 0.827-0.317 1.144-0.317 0.318 0 0.383 0.254 0.733 0.254s0.793-1.43 0.857-1.843c0.064-0.414 0.352-2.418 0.574-2.354 0.223 0.063 0.317 2.1-0.095 2.957-0.414 0.859-0.065 1.018 0.316 1.051 0.381 0.031 1.177-2.45 1.305-2.895 0.127-0.445-0.382-2.799-0.446-3.466-0.063-0.668 0.16-1.812 0.319-2.383 0.159-0.574 0.031-5.375 0.031-5.375s-1.685-0.796-2.289-0.891zm-6.455 0.065s-0.763 5.276 2.957 4.767c2.631-0.36 2.002-4.164 2.002-4.164s-0.603 1.303-1.971 1.303c-0.892 0-2.988-1.906-2.988-1.906zm9.689 1.398c-0.021 0.002-0.04 0.013-0.054 0.033-0.764 1.049-0.319 2.162-0.319 2.416 0 0.255 0.446 0.477 0.477 0.699 0.031 0.223-0.255 1.813-0.35 2.225-0.095 0.414 0.541 1.495 0.637 1.781 0.095 0.287-0.16 2.035-0.256 2.385-0.095 0.35-0.126 1.431 0.223 1.621 0.35 0.191 0.955-1.144 1.436-1.176 0.47-0.031 0.89 0.701 1.24 0.637s-0.51-1.176-0.7-1.781c-0.19-0.604-0.639-3.433-0.672-3.752-0.031-0.318-0.222-2.48-0.253-2.83-0.031-0.327-1.083-2.283-1.409-2.258zm-21.101 0.66s-0.038 0.854-0.094 2.137l0.352 0.322c-0.159-1.519-0.258-2.459-0.258-2.459zm-0.197 2.985c-0.028-0.012-0.077-0.004-0.157 0.076-0.159 0.158 0.001 1.303-0.125 1.527-0.127 0.223-0.097 0.668-0.287 1.049-0.191 0.381 0.127 0.7 0.477 0.795s0.508-1.304 0.508-1.621c0-0.319-0.191-1.654-0.381-1.782 0 0-0.008-0.033-0.035-0.044zm-1.409 2.48c-0.091 0.004-0.194 0.044-0.273 0.107-0.159 0.128-0.128 0.541 0.158 0.7 0.288 0.158 0.192-0.063 0.225-0.254 0 0 0.157-0.287 0.093-0.446-0.031-0.079-0.111-0.111-0.203-0.107zm2.08 1.633c-0.401-0.1-0.126 0.667 0.065 0.826 0.19 0.16 0.221 0.129 0.347-0.125 0.128-0.255-0.158-0.637-0.412-0.701zm1.582 0.635c-0.187 0.013-0.334 0.098-0.406 0.289-0.286 0.762 1.178 1.653 1.781 2.416 0.605 0.763 2.289 1.367 2.893 1.398 0.605 0.033 0.606-0.985 0.701-1.43 0.095-0.446 0.38-0.318 0.508-0.795 0.127-0.477-0.477-1.591-1.494-1.496-1.018 0.097-0.287 1.432-0.287 1.432-0.159 0.254-0.222 0.191-0.508 0s-0.86-0.763-1.336-1.049c-0.358-0.214-1.288-0.806-1.852-0.765zm25.199 0.279c-0.14 0.035 0.07 0.592-0.04 0.697-0.1 0.105-0.21 0.629-0.17 0.838 0.03 0.21 0.38-0.244 0.45-0.418 0.07-0.175 0.42-0.176 0.63-0.42s0-0.559-0.21-0.594-0.14 0.559-0.31 0.559c-0.18 0 0-0.453-0.14-0.453 0 0-0.07-0.244-0.21-0.209zm-27.185 0.08c-0.131 2.824-0.255 5.395-0.295 5.795-0.094 0.937 1.313 10.224 1.313 11.064 0 0.85 0.094 8.35 0.845 11.92 0.75 3.56 3.284 11.35 3.284 11.35s-2.064-20.92-2.159-22.42c-0.055-0.9-0.979-9.9-1.716-17.022-0.224-0.23-0.578-0.557-0.817-0.617-0.139-0.033-0.304-0.056-0.455-0.07zm27.065 2.014c-0.03 0.002-0.06 0.011-0.09 0.033-0.28 0.175-2.34 6.492-2.34 6.492l0.14 1.082 2.34-7.223s0.11-0.401-0.05-0.384zm-4.276 0.3s-0.222 0.032-0.349 0.192c-0.128 0.159 0.128 1.176-0.159 1.176-0.286 0-0.318-0.606-0.509-0.414-0.192 0.191 0.35 1.94 0.476 2.449 0.128 0.507 0.223 2.193 0.223 2.638s-0.19 3.976-0.254 4.325c-0.064 0.35 0.858 1.589 1.148 1.589 0.28 0 0.92-1.367 1.01-1.972 0.1-0.604-0.38-0.573-0.54-0.795-0.16-0.223 0.13-4.101 0.19-4.705 0.07-0.605-0.25-3.084-0.38-3.561-0.12-0.477-0.63-0.858-0.856-0.922zm-2.248 0.475c-0.043-0.01-0.09-0.001-0.137 0.033-0.127 0.095-0.159 0.541-0.095 0.891 0.063 0.35 0.284-0.128 0.381-0.445 0.071-0.24-0.02-0.448-0.149-0.479zm0.496 2.078c-0.016-0.005-0.036 0.001-0.06 0.022-0.223 0.191-0.256 0.923-0.256 1.273s0.351 0.572 0.51 0.731c0.158 0.158 0.095-0.987-0.032-1.209-0.111-0.195-0.049-0.784-0.162-0.817zm-11.094 0.402s-0.255 0.098-0.191 0.321c0.064 0.222 0.732 0.285 1.145 0.285s0.891 0.287 1.527 0.287 0.443-0.192 0.412-0.383c-0.032-0.19-2.575-0.636-2.893-0.51zm8.926 0.842c-0.424-0.026-1.39 0.169-1.676 0.24-0.382 0.097-1.815 0.291-1.685 0.383 0.54 0.382 0.412 0.221 0.953 0.221 0.54 0 1.146-0.126 1.527-0.158 0.382-0.031 0.985-0.286 1.08-0.572 0.025-0.072-0.057-0.105-0.199-0.114zm-7.301 0.475c-0.258-0.012-0.496-0.011-0.576 0.021 0 0-0.19 0.094-0.064 0.286 0.127 0.19 1.178 0.221 1.527 0.189 0.35-0.031 0.89-0.126 0.858-0.348-0.032-0.223-0.732-0.063-1.049-0.095-0.159-0.016-0.437-0.041-0.696-0.053zm1.217 0.974c-0.187 0.024-0.378 0.096-0.552 0.096-0.349 0-0.32 0.732-0.383 1.113-0.064 0.382-0.189 0.987-0.508 0.637-0.318-0.35-0.128-1.112-0.414-1.049-0.285 0.063-0.222 1.08-0.348 1.27-0.127 0.191-0.096 0.382-0.32-0.508-0.223-0.89-0.508-0.7-0.762-0.668 0 0-0.128 0.446-0.287 0.668-0.159 0.223-0.095 2.354-0.223 2.83-0.127 0.478-0.508 2.45-0.795 2.99-0.286 0.54-0.222 4.64 0 4.77 0.223 0.13 2.131-0.73 2.831-0.83 0.698-0.09 3.848 0.23 4.738 0.19 0.89-0.03 3.753-0.89 4.07-0.98 0.319-0.1 0.571-0.13 0.858 0.16 0.286 0.28 0.795 0.35 1.048-0.35 0.255-0.7-0.062-1.69-0.093-2.1-0.033-0.41-0.669-4.518-0.702-5.09-0.031-0.573-0.761-2.193-1.111-2.574-0.35-0.383-6.201-0.001-6.519-0.383-0.159-0.191-0.341-0.215-0.528-0.192zm10.39 6.969c-0.13-0.1-0.16 0.28-0.16 0.28s-3.978 13.48-3.755 13.52c0.222 0.03 0.223-0.32 0.223-0.32s3.812-12.91 3.852-13.07c0.03-0.16-0.04-0.32-0.16-0.41zm-4.169 4.89c-0.923 0.04-1.463 0.58-1.654 1.02-0.192 0.45 0.222 1.46 0.191 1.91-0.032 0.44 0.127 1.84-0.096 2.54-0.222 0.7 0.128 4.01 0.446 4.07 0.318 0.07 0.825-1.01 1.015-1.46 0.192-0.44 1.243-4.1 1.528-4.77 0.286-0.67 0.158-2.32 0.158-2.67s-1.116-0.65-1.588-0.64zm-8.363 0.35c-1.178 0.03-1.303 0.45-1.844 0.99-0.54 0.54 0.35 2.51 0.318 3.43s0.858 4.1 0.826 4.58-0.127 0.77-0.222 1.53c-0.096 0.76-0.034 2.57 0.094 3.46 0.127 0.89 0.732 2.86 0.732 3.47 0 0.6-0.382 3.75-0.477 4.23-0.096 0.47 0.413 0.73 0.762 0.89 0.35 0.16 1.019-0.29 1.274-0.45 0.253-0.16 0.381-0.31 0.064-0.38-0.319-0.06-1.338 0.26-1.369 0-0.033-0.25 0.89-0.67 0.922-1.05s-0.635-0.12-0.604-0.41c0.033-0.29 0.414 0 0.604-0.22 0.191-0.23-0.063-0.86-0.032-1.24 0.032-0.38 0.319-2.13 0.319-2.48s0.032-1.09-0.063-1.09c-0.096 0-0.541-0.19-0.636-0.6-0.097-0.41 0.03-0.63 0.316-0.92s0.128 0.32 0.414 0.38 0.286-1.27 0.254-1.75c-0.031-0.48-0.031-1.75-0.158-2.29-0.128-0.54 0.063-3.18 0.158-3.78 0.096-0.6 0.669-0.8 0.764-1.43 0.095-0.64 0.254-1.69 0.254-2.51 0-0.83-0.222-0.54-0.348-0.48-0.128 0.06-0.35 0.76-0.51 0.6-0.159-0.16 0.096-1.21 0.096-1.52 0-0.32-1.423-0.97-1.908-0.96zm42.672 4.03c-1 0-2.23 0.16-3.73 0.58l-0.04 0.03c-0.03 0.03-0.09 0.08-0.16 0.16-0.15 0.15-0.35 0.4-0.59 0.77-0.48 0.75-1.09 2-1.6 4.01-0.19 0.74-0.46 2.28-0.95 4.28-0.49 1.99-1.2 4.46-2.27 7.06-2.13 5.22-5.69 11.05-11.79 14.94-4.05 2.59-9.22 4.32-15.812 4.47-0.004 0.01-0.006 0.02-0.01 0.03-0.018 0.06-0.039 0.15-0.039 0.25 0.003 0.19 0.062 0.42 0.338 0.66 0.278 0.23 0.791 0.45 1.69 0.56l-0.008 0.07 0.064-0.01c0.213 1.03 0.282 2.1 0.282 3.06 0 0.47-0.017 0.9-0.041 1.3 0.043 0 0.067 0 0.197-0.01 0.192-0.02 0.476-0.04 0.84-0.08 0.727-0.08 1.774-0.22 3.054-0.47 2.555-0.5 6.045-1.45 9.735-3.21 7.39-3.52 15.63-10.3 19.04-23.39v-0.01s0.63-2.26 1.51-4.97c0.87-2.71 1.99-5.85 2.96-7.63 0.28-0.52 0.55-0.91 0.8-1.17 0.08-0.07 0.15-0.13 0.23-0.18-0.07-0.06-0.18-0.15-0.32-0.25h-0.01c-0.03-0.02-0.07-0.04-0.1-0.06-0.1-0.07-0.23-0.14-0.37-0.2-0.43-0.21-1.02-0.41-1.82-0.52-0.09-0.01-0.18-0.01-0.27-0.02-0.25-0.03-0.52-0.04-0.81-0.04v-0.01zm3.95 1.29c-0.14 0.04-0.35 0.22-0.57 0.52-0.23 0.32-0.48 0.77-0.75 1.3-0.44 0.9-0.9 2.07-1.36 3.29l1.16-0.12c-0.05-0.08-0.07-0.18-0.07-0.27 0-0.23 0.08-0.47 0.17-0.66 0.08-0.18 0.16-0.31 0.16-0.32l0.01-0.01 0.02-0.05c0.03-0.04 0.06-0.1 0.1-0.18 0.08-0.15 0.19-0.36 0.31-0.61 0.25-0.5 0.54-1.14 0.73-1.7 0.13-0.37 0.22-0.71 0.21-0.94 0.01-0.1-0.02-0.18-0.04-0.21s-0.04-0.03-0.08-0.04zm-76.115 2.16c-0.417 0-1.084 0.06-1.644 0.12-0.465 0.05-0.722 0.08-0.842 0.09 0.443 0.63 0.93 1.24 1.473 1.84h0.002c0.031-0.03 0.076-0.08 0.131-0.13 0.111-0.11 0.261-0.27 0.416-0.47 0.293-0.38 0.598-0.88 0.711-1.43-0.065-0.01-0.124-0.02-0.247-0.02zm0.432 0.13c-0.133 0.57-0.441 1.07-0.734 1.45-0.283 0.36-0.512 0.56-0.574 0.62l0.011 0.01-0.052 0.03h-0.006-0.004l-0.059 0.03c-1.113 0.59-2.26 0.96-3.433 1.18 0.022 0.07 0.199 0.61 0.398 1.37 0.21 0.82 0.422 1.79 0.422 2.48 0 0.02-0.002 0.03-0.002 0.05 0.89-0.52 1.918-1.03 2.932-1.35h0.021c0.029-0.01 0.057-0.02 0.086-0.03 0.156-0.05 0.309-0.08 0.459-0.08 0.41 0 0.786 0.18 1.115 0.43s0.616 0.58 0.854 0.91c0.335 0.46 0.526 0.83 0.638 1.07 0.253-0.85 0.366-1.66 0.366-2.4 0.002-3.27-2.016-5.37-2.438-5.77zm38.442 0.53s-0.255 0.32-0.319 0.42c-0.064 0.09 0.127 0.38 0.096 0.54-0.033 0.16 0.253-0.19 0.381-0.35 0.127-0.16 0-0.51-0.158-0.61zm-0.973 0.8c-0.094-0.02-0.191-0.02-0.27 0-0.126 0.03-0.126 0.19-0.285 0.32-0.159 0.12-0.285 0.28-0.476 0.47-0.192 0.19 0.032 0.8 0.158 1.12 0.127 0.31 0.668-0.61 0.828-0.86 0.159-0.26-0.033-0.26-0.16-0.38-0.126-0.13 0.318-0.23 0.572-0.35 0.191-0.1-0.084-0.28-0.367-0.32zm-1.668 0.7c-0.349 0.12-0.19 0.06-0.223 0.32-0.031 0.25-0.095 1.46 0 2.19 0.096 0.73 0.32 2.67 0.256 3.47-0.064 0.79 0 2.41-0.191 2.79-0.19 0.39 0.699 2.1 0.922 2.32 0.222 0.23 0.698-0.06 0.953-0.22 0.253-0.16 0.064-0.51-0.127-0.63-0.192-0.13-0.287-0.32-0.254-0.58 0.031-0.25-0.191-0.76-0.158-1.14 0.031-0.38 0.475-0.38 0.38-0.54-0.096-0.16 0-0.96 0.19-1.56 0.191-0.6 0.669-3.91 0.732-4.39s0.033-2.19-0.158-2c-0.19 0.19-1.305 1.94-1.654 2-0.35 0.07-0.349-0.22-0.477-0.41-0.127-0.19-0.011-1.69-0.191-1.62zm-36.336 3.94c-0.134 0-0.271 0.03-0.412 0.08 0.009 0.04 0.011 0.05 0.037 0.15 0.041 0.17 0.105 0.42 0.195 0.74 0.161 0.56 0.423 1.37 0.772 2.32 0.138-0.07 0.878-0.41 1.463-0.61 0.204-0.07 0.369-0.12 0.498-0.12l-0.014-0.04s-0.011-0.02-0.029-0.06c-0.019-0.04-0.046-0.1-0.082-0.17-0.073-0.15-0.18-0.35-0.317-0.57-0.271-0.45-0.661-0.99-1.121-1.34-0.306-0.23-0.641-0.38-0.99-0.38zm-0.607 0.14c-2.279 0.73-4.652 2.49-5.211 2.92-0.051 0.04-0.057 0.05-0.077 0.06 1.694 9.17 5.967 15.6 10.883 20.07 4.926 4.48 10.504 6.98 14.776 8.26 2.846 0.86 5.117 1.18 6.214 1.18 0.193 0 0.349-0.02 0.461-0.03 0.108-0.02 0.173-0.05 0.184-0.06v-3.4-0.94l0.119-0.03-0.004-0.02c0.86-0.13 1.384-0.32 1.68-0.51 0.296-0.2 0.367-0.39 0.369-0.55 0.005-0.25-0.196-0.48-0.24-0.52-12.133-1.79-19.434-8.42-23.692-14.6-4.144-6.02-5.392-11.51-5.462-11.83zm36.816 6.85c-0.255 0-0.191 0.16-0.096 0.32 0.096 0.16 0.605 0.58 0.891 0.7 0.286 0.13 0.254-0.09 0.223-0.28-0.033-0.19-0.717-0.74-1.018-0.74zm1.404 1.41c-0.058 0.01-0.114 0.03-0.164 0.06-0.191 0.09-0.318 0.06-0.318 0.57s1.241 0.95 1.527 1.14c0.286 0.2 0.795-0.19 0.953-0.6 0.16-0.41 0.16-0.7-0.031-0.79-0.191-0.1-0.35 0.73-0.668 0.76-0.319 0.03-0.477-0.51-0.73-0.86-0.192-0.26-0.395-0.31-0.569-0.28zm-6.097 0.42c-0.118 0.03-0.339 0.27-0.649 0.34-0.414 0.09-0.533 0.2-0.637 0.41-0.126 0.26 0.001 0.41 0.223 0.45 0.223 0.03 0.669-0.42 0.986-0.64 0.318-0.22 0.222-0.32 0.159-0.51-0.016-0.05-0.043-0.06-0.082-0.05zm-2.907 0.4c-0.508 0-0.635 0.41-1.111 0.76-0.478 0.35-1.051 1.82-0.924 2.14 0.128 0.31 0.638 0.12 0.924 0.06 0.286-0.07-0.096-0.22 0-0.45 0.095-0.22 0.761-0.09 1.238-0.12 0.477-0.04 0.891-1.05 0.891-1.34 0-0.28-0.254-0.38-0.414-0.54-0.159-0.16-0.347-0.51-0.604-0.51zm0.338 18.1c-0.06 0.17-0.188 0.34-0.418 0.49-0.318 0.21-0.845 0.38-1.638 0.51 0.024 0.07 0.04 0.13 0.087 0.2 0.088 0.12 0.238 0.26 0.559 0.39 0.342 0.14 0.896 0.26 1.719 0.35 0.001-0.01 0.002-0.02 0.004-0.03 0.011-0.08 0.023-0.2 0.023-0.35 0-0.36-0.071-0.9-0.336-1.56zm6.108 0.01c-0.019 0.08-0.045 0.15-0.059 0.23-0.06 0.35-0.078 0.72-0.078 1.03 0 0.22 0.009 0.41 0.018 0.54 0.003 0.06 0.005 0.06 0.007 0.1 0.373-0.05 0.705-0.1 0.963-0.16 0.744-0.18 1.05-0.4 1.17-0.55 0.014-0.01 0.004-0.01 0.014-0.03-0.814-0.12-1.334-0.33-1.649-0.59-0.218-0.18-0.329-0.38-0.386-0.57zm-8.227 1.33v0.48 2.08 1.36 1.85c0 0.1 0.03 0.18 0.098 0.27 0.066 0.09 0.17 0.18 0.306 0.26 0.274 0.17 0.68 0.31 1.17 0.43 0.979 0.23 2.295 0.34 3.612 0.34 1.726 0 3.46-0.2 4.423-0.57 0.32-0.12 0.551-0.26 0.666-0.4 0.067-0.08 0.098-0.16 0.098-0.24v-0.01-0.01s0.016-0.08 0.037-0.24c0.023-0.15 0.05-0.38 0.08-0.66 0.059-0.57 0.119-1.35 0.119-2.23 0-0.85-0.072-1.78-0.232-2.69-0.112 0.12-0.294 0.26-0.615 0.39-0.685 0.27-1.974 0.52-4.447 0.52-2.004 0-3.246-0.12-4.034-0.3-0.765-0.17-1.105-0.4-1.281-0.63z" transform="matrix(.8 0 0 -.8 388.58 698.35)" fill="#fff"/><path d="m89.549 1.0098l-0.041 0.6464c0.749 0.0826 1.245 0.2733 1.517 0.6758l-0.468 7.3223c-0.114 1.7817-0.37 2.4677-1.717 2.4157l-0.045 0.717c0.807-0.001 1.471 0.024 2.014 0.059 0.401 0.026 1.081 0.104 2.074 0.22l0.045-0.716c-1.342-0.155-1.558-0.872-1.446-2.6371l0.375-5.8359 3.161 9.291 0.82 0.053 4.146-8.596-0.41 6.414c-0.08 1.258-0.188 1.584-1.683 1.629l-0.045 0.697c1.105 0.019 1.998 0.059 2.694 0.104 0.86 0.055 1.94 0.157 3.26 0.295l0.05-0.698c-1.4-0.141-1.71-0.513-1.63-1.666l0.45-7.1285c0.09-1.31 0.36-1.7142 1.85-1.6367l0.04-0.6817c-0.97-0.0275-1.82-0.0476-2.61-0.0976-0.54-0.035-1.08-0.0863-1.62-0.1563l-3.754 7.9199-2.904-8.3457c-0.824-0.0175-1.627-0.0522-2.432-0.1035-0.629-0.04-1.187-0.0751-1.691-0.1601zm-13.393 1.3808c-1.406 0.3713-2.923 0.7325-4.529 1.0938-1.861 0.42-3.505 0.7723-4.955 1.0273l0.158 0.6992c1.371-0.29 1.78 0.0131 2.072 1.3106l1.479 6.5605c0.322 1.434 0.231 1.903-1.26 2.293l0.158 0.699c0.468-0.159 1.76-0.468 3.895-0.949 0.854-0.193 1.593-0.341 2.203-0.424l-0.158-0.701c-1.723 0.318-1.897-0.056-2.213-1.457l-0.674-2.9903c0.119-0.0275 0.22-0.0673 0.322-0.0898 1.332-0.3 1.98 0.1106 2.512 1.5161l0.734-0.165c-0.148-0.577-0.337-1.3427-0.545-2.2652-0.162-0.7162-0.327-1.5247-0.509-2.416l-0.735 0.166c0.117 1.3913-0.367 2.1118-1.666 2.4043-0.101 0.0225-0.188 0.042-0.291 0.0645l-0.843-3.7403c-0.115-0.5125 0.05-0.6571 0.767-0.8183 2.358-0.5313 3.467-0.3884 4.154 1.3066l0.7-0.1582-0.776-2.9668zm39.274 1.9824l-6.77 8.424c-0.59 0.726-1.21 1.005-2.05 0.84l-0.2 0.689c0.67 0.153 1.33 0.321 1.99 0.506 0.67 0.191 1.36 0.403 2.06 0.637l0.19-0.69c-0.94-0.267-1.3-0.678-1.12-1.318 0.05-0.185 0.27-0.649 0.69-1.168l0.48-0.576 3.77 1.066 0.08 0.987c0.07 0.673 0.04 1.158-0.02 1.376-0.15 0.539-0.6 0.505-1.66 0.26l-0.19 0.692c0.99 0.242 1.95 0.496 2.91 0.767s1.93 0.565 2.9 0.873l0.2-0.689c-0.96-0.344-1.22-0.852-1.32-1.828l-1.1-10.61-0.84-0.238zm-1.42 3.1485l0.37 4.3435-3.1-0.875 2.73-3.4685zm-55.58 0.3047c-1.052-0.0424-2.13 0.1879-3.264 0.6816-3.676 1.6022-5.094 5.0082-3.652 8.3142 1.441 3.308 4.83 4.601 8.425 3.033 1.83-0.797 3.083-1.955 3.795-3.564 0.694-1.562 0.685-3.164-0.037-4.816-0.706-1.6216-1.848-2.7083-3.394-3.2758-0.62-0.224-1.242-0.3476-1.873-0.373zm-1.471 1.2031c1.489 0.0833 2.799 1.3367 3.848 3.7437 1.427 3.275 1.149 5.268-1.002 6.206-2.135 0.93-3.981-0.195-5.366-3.374-1.447-3.322-1.191-5.325 0.975-6.2691 0.534-0.2325 1.049-0.3344 1.545-0.3066zm71.551 0.375c-0.17-0.0099-0.34-0.0069-0.5 0.0078-1.08 0.0983-2.01 0.7399-2.55 1.8629-0.85 1.749-0.24 3.113 1.37 5.018 1.09 1.31 1.68 2.077 1.16 3.133-0.5 1.04-1.54 1.352-2.74 0.773-1.4-0.679-1.88-2.075-1.41-4.164l-0.73-0.351c-0.22 0.536-0.5 1.158-0.83 1.836-0.25 0.52-0.51 1.017-0.78 1.505l0.74 0.36 0.56-0.682c0.42 1.138 1.18 1.833 2.34 2.397 2.29 1.105 4.42 0.482 5.39-1.536 0.95-1.955 0-3.366-1.88-5.636-0.88-1.069-1.41-1.674-0.97-2.573 0.39-0.82 1.28-1.129 2.24-0.664 1.31 0.633 1.92 1.979 1.52 3.629l0.7 0.344c0.47-1.095 0.94-2.095 1.38-2.994l-0.75-0.358-0.51 0.586c-0.44-0.95-1.14-1.558-2.18-2.0621-0.53-0.2594-1.06-0.4018-1.57-0.4316zm11.2 6.6267c-0.93 0.062-1.78 0.551-2.41 1.449-1.1 1.6-0.71 3.04 0.59 5.168 0.88 1.463 1.34 2.309 0.67 3.274-0.66 0.951-1.74 1.1-2.83 0.344-1.28-0.887-1.54-2.338-0.76-4.33l-0.66-0.457c-0.3 0.495-0.67 1.065-1.1 1.685-0.33 0.475-0.66 0.926-1.01 1.367l0.68 0.467 0.66-0.586c0.24 1.189 0.88 1.992 1.95 2.729 2.09 1.442 4.29 1.153 5.56-0.692 1.23-1.786 0.51-3.328-1-5.859-0.71-1.193-1.13-1.868-0.57-2.69 0.52-0.75 1.45-0.918 2.33-0.312 1.19 0.826 1.59 2.251 0.93 3.818l0.65 0.448c0.64-1.009 1.25-1.927 1.82-2.749l-0.68-0.466-0.6 0.5c-0.29-1.007-0.88-1.715-1.83-2.371-0.66-0.452-1.34-0.695-1.99-0.737-0.13-0.008-0.27-0.009-0.4 0zm-101.91 2.578c-0.591 0.52-1.103 0.974-1.531 1.334-0.483 0.407-0.951 0.8-1.442 1.168l0.44 0.524c0.72-0.56 1.112-0.662 1.507-0.194 0.27 0.322 0.433 0.896 0.559 1.727l0.512 3.299-3.33-1.293c-0.829-0.333-1.344-0.564-1.535-0.791-0.294-0.348-0.085-0.753 0.587-1.342l-0.439-0.523c-0.728 0.658-1.467 1.303-2.231 1.947-0.656 0.551-1.366 1.126-2.166 1.752l0.43 0.51c0.394-0.24 0.727-0.362 1.035-0.348 0.174 0.015 0.59 0.1 1.239 0.355l5.377 2.067 1.521 1.808c0.778 0.925 0.713 1.391-0.32 2.284l0.461 0.55c0.648-0.616 1.455-1.293 2.392-2.082 0.87-0.732 1.659-1.371 2.365-1.92l-0.462-0.548c-1.045 0.878-1.566 0.857-2.377-0.108l-1.612-1.914-0.951-6.135c-0.112-0.706 0.012-1.153 0.412-1.603l-0.441-0.524zm116.03 7.774l-9.96 4.187c-0.86 0.359-1.54 0.308-2.2-0.24l-0.5 0.514c0.51 0.451 1.01 0.914 1.5 1.39 0.5 0.489 1.01 1.001 1.51 1.539l0.5-0.513c-0.7-0.684-0.82-1.215-0.36-1.692 0.14-0.138 0.55-0.441 1.17-0.697l0.69-0.283 2.81 2.734-0.4 0.91c-0.26 0.623-0.52 1.034-0.67 1.198-0.39 0.401-0.77 0.16-1.58-0.559l-0.5 0.514c0.75 0.682 1.48 1.366 2.19 2.062 0.72 0.697 1.43 1.415 2.14 2.149l0.5-0.514c-0.68-0.759-0.66-1.33-0.29-2.238l4.08-9.852-0.63-0.609zm-2.74 2.094l-1.74 3.998-2.31-2.246 4.05-1.752zm-126.02 1.507c-1.234 1.592-2.651 3.352-4.236 5.289-1.031 1.262-2.009 2.429-2.961 3.483l2.527 2.25 0.444-0.543c-1.249-1.406-1.184-2.37 0.025-3.848 0.144-0.176 0.289-0.352 0.469-0.545l6.722 5.498c0.854 0.699 0.856 1.108 0.024 2.237l0.557 0.455c0.857-1.131 1.564-2.023 2.074-2.647 0.587-0.717 1.222-1.466 1.916-2.232l-0.555-0.455c-0.925 1.076-1.4 1.185-2.254 0.486l-6.722-5.498c0.175-0.241 0.339-0.469 0.505-0.672 1.142-1.396 2.15-1.634 3.735-0.722l0.431-0.53-2.701-2.006zm60.09 4.452c-0.005 0.007-0.1 0.157-0.344 0.339-0.038 0.032-0.148 0.075-0.279 0.108-0.197 0.051-0.448 0.087-0.646 0.109-0.1 0.011-0.188 0.019-0.25 0.024s-0.098 0.007-0.098 0.007l0.017 0.274c0.003 0 0.273-0.017 0.581-0.061 0.153-0.022 0.318-0.052 0.464-0.09 0.148-0.038 0.277-0.078 0.375-0.152 0.293-0.219 0.407-0.406 0.414-0.42l-0.234-0.138zm0.006 2.382l-1.139 0.069 0.016 0.273 1.139-0.07-0.016-0.272zm75.19 0.338c-1.33-0.027-2.61 0.403-3.83 1.262-2.87 2.029-3.46 5.421-1.41 8.326 0.81 1.144 1.86 1.904 3.27 2.361l-0.59 0.889 0.41 0.588 3.35-2.361-0.42-0.602c-2.09 0.871-3.73 0.551-4.75-0.894-1.26-1.788-0.57-3.969 2.12-5.868 2.7-1.907 5.14-1.825 6.37-0.08 0.89 1.259 0.71 2.886-0.58 4.436l0.43 0.601 3.03-2.267-0.45-0.629-0.97 0.322c0.05-1.21-0.3-2.337-1.08-3.439-1.2-1.703-2.88-2.596-4.9-2.645zm-77.913 2.082c-0.002 0.001-0.337 0.104-0.676 0.256-0.17 0.076-0.341 0.164-0.478 0.264-0.069 0.05-0.129 0.103-0.178 0.164-0.046 0.06-0.084 0.134-0.084 0.223 0 0.033 0.007 0.068 0.018 0.099 0.056 0.155 0.087 0.27 0.142 0.371 0.027 0.05 0.063 0.1 0.12 0.135 0.042 0.027 0.094 0.032 0.144 0.037-0.008 0.047-0.019 0.086-0.019 0.147 0 0.123 0.024 0.274 0.101 0.427l0.246-0.121c-0.056-0.112-0.074-0.218-0.074-0.306 0-0.072 0.01-0.133 0.021-0.174l0.01-0.03c0.063-0.029 0.13-0.055 0.172-0.099 0.19-0.203 0.223-0.471 0.227-0.483l-0.27-0.041v0.002c-0.002 0.017-0.023 0.12-0.07 0.213-0.024 0.048-0.054 0.093-0.088 0.125-0.035 0.033-0.072 0.055-0.115 0.065-0.045 0.01-0.079 0.013-0.1 0.013-0.029 0-0.035-0.004-0.039-0.005-0.005-0.003-0.025-0.022-0.051-0.088-0.026-0.063-0.058-0.159-0.101-0.282v-0.005c-0.002-0.004 0.002-0.023 0.027-0.055 0.043-0.055 0.142-0.131 0.266-0.201 0.183-0.107 0.418-0.206 0.605-0.276 0.093-0.036 0.175-0.064 0.233-0.084s0.091-0.029 0.091-0.029l-0.08-0.262zm0.532 0.709c-0.002 0.008-0.109 0.321-0.11 0.631 0.001 0.13 0.017 0.263 0.09 0.381 0.182 0.294 0.366 0.442 0.375 0.449l0.17-0.215c-0.011-0.008-0.163-0.136-0.315-0.379-0.028-0.045-0.048-0.133-0.046-0.236 0-0.122 0.023-0.262 0.046-0.367 0.013-0.054 0.025-0.1 0.034-0.131l0.011-0.035 0.004-0.012-0.259-0.086zm5.855 2.975s-0.069 3.002-0.449 3.002c-0.379 0-1.551-2.311-1.551-1.899 0 0.415 1.173 2.486 1.035 2.623-0.139 0.138-0.724-0.345-0.724-0.345s0.276 0.414 0.414 0.552c0.137 0.138 0.516 0.516 0.171 0.655-0.345 0.137-0.965-0.621-1.171-0.758-0.208-0.139-0.898-1.105-1.139-1.381s-1.932-1.172-1.932-1.172 2.311 2.586 2.172 2.725c-0.137 0.137-1.758-0.793-1.758-0.793l2.311 1.793 2.828-0.033s-0.207-1.588 0-1.967c0.206-0.38 0.414-2.656 0.414-2.656l-0.621-0.346zm-73.793 0.264c-0.519 0.953-1.027 1.855-1.514 2.685-0.461 0.786-0.998 1.669-1.603 2.633l0.619 0.361c0.036-0.06 0.062-0.103 0.088-0.148 0.646-1.104 1.07-1.099 2.098-0.496l6.132 3.593c1.164 0.682 1.346 1.03 0.641 2.301l0.603 0.356c0.582-1.06 1.088-1.961 1.512-2.686 0.329-0.559 0.868-1.441 1.606-2.633l-0.606-0.353c-0.719 1.121-1.218 1.212-2.32 0.566l-6.135-3.594c-0.966-0.567-1.157-1.104-0.6-2.056 0.028-0.045 0.063-0.105 0.098-0.166l-0.619-0.363zm155.91 5.849l-0.66 0.287c0.02 0.033 0.03 0.063 0.05 0.096 0.55 1.269 0.25 1.55-0.83 2.018l-6.52 2.834c-1.23 0.537-1.61 0.491-2.22-0.811l-0.64 0.279c0.51 1.079 0.92 1.987 1.25 2.742 0.25 0.578 0.64 1.517 1.16 2.799l0.64-0.281c-0.46-1.192-0.23-1.674 0.92-2.176l2.93-1.269 2.06 4.752-2.92 1.269c-1.24 0.538-1.62 0.494-2.22-0.808l-0.65 0.279c0.52 1.11 0.94 2.02 1.25 2.742 0.28 0.643 0.67 1.58 1.16 2.799l0.64-0.279c-0.5-1.195-0.23-1.676 0.93-2.178l6.52-2.832c1.04-0.454 1.55-0.333 2.05 0.807l0.03 0.064 0.66-0.285c-0.3-0.558-0.6-1.248-0.95-2.035-0.39-0.899-0.89-2.055-1.46-3.506l-0.66 0.285c0.58 1.389 0.31 1.64-0.78 2.115l-2.78 1.207-2.06-4.752 2.77-1.209c1.03-0.446 1.58-0.282 2 0.698 0.03 0.063 0.05 0.112 0.08 0.175l0.66-0.287c-0.51-1.077-0.93-2.001-1.25-2.756-0.34-0.77-0.72-1.693-1.16-2.783zm-161.72 4.582l-0.3145 0.762 0.6152 0.482c-0.9237 0.49-1.491 1.22-1.9335 2.287-0.81 1.958-0.138 3.772 1.707 4.536 1.7953 0.742 3.1193 0.058 4.9273-1.657 1.244-1.172 1.977-1.796 3.061-1.347 1.067 0.441 1.438 1.466 0.93 2.695-0.595 1.44-1.962 1.993-4.075 1.65l-0.308 0.745c0.547 0.188 1.186 0.433 1.883 0.72 0.533 0.221 1.045 0.451 1.548 0.698l0.315-0.76-0.713-0.522c1.111-0.487 1.762-1.279 2.258-2.476 0.97-2.347 0.225-4.438-1.846-5.295-2.006-0.83-3.362 0.203-5.519 2.209-1.015 0.945-1.588 1.503-2.5101 1.121-0.8413-0.348-1.2025-1.219-0.795-2.205 0.5563-1.343 1.8661-2.032 3.5371-1.721l0.301-0.727c-1.12-0.406-2.146-0.814-3.0685-1.195zm58.764 6.244l-1.287 3.963h-4.166l3.369 2.449-1.287 3.961 3.371-2.447 3.371 2.447-1.289-3.961 3.373-2.449h-4.168l-1.287-3.963zm-52.236 7.442c-0.199 0.565-0.693 1.009-1.485 1.334l-2.695 1.134c-1.014 0.437-1.7213 0.708-2.035 1.139 0.1087-1.914-0.7222-3.159-2.2422-3.502-2.0163-0.454-3.2517 0.883-3.9629 4.043-0.285 1.264-0.494 2.437-0.7402 3.529-0.135 0.599-0.3002 1.334-0.5352 2.215l0.6836 0.153c0.3475-1.465 0.6694-1.697 1.7969-1.444l7.072 1.592c1.315 0.296 1.584 0.698 1.26 2.133l0.717 0.162c0.141-0.866 0.313-1.617 0.459-2.266 0.141-0.632 0.443-1.892 0.904-3.781l-0.717-0.162c-0.007 0.034-0.012 0.052-0.021 0.086-0.273 1.214-0.715 1.508-1.91 1.238l-2.9398-0.662c0.0162-0.069 0.0102-0.122 0.0215-0.174 0.1462-0.648 0.6843-0.887 1.6313-1.265l4.566-1.864c0.062-0.435 0.162-0.878 0.262-1.322 0.238-1.059 0.42-1.789 0.543-2.174l-0.633-0.142zm162.49 0.213l-0.67 0.129c0.19 1.443-0.2 1.715-1.7 2.005l-4.19 0.813c-1.69 0.326-2.79 0.791-3.41 1.676-0.78 1.132-0.94 2.519-0.59 4.324 0.38 1.959 1.28 3.283 2.55 3.84 1.05 0.456 2.21 0.356 3.7 0.066l3.95-0.764c1.33-0.256 1.86 0.016 2.23 1.192l0.67-0.131c-0.13-0.509-0.28-1.21-0.45-2.053-0.14-0.721-0.25-1.396-0.34-2.039l-0.63 0.125c0.12 1.278-0.3 1.714-1.66 1.977l-3.95 0.765c-1.3 0.253-2.27 0.351-3.09-0.007-0.8-0.363-1.42-1.276-1.67-2.582-0.43-2.235 0.51-3.168 3.05-3.661l4.47-0.865c1.43-0.276 1.86-0.092 2.21 1.301l0.69-0.133c-0.27-1.107-0.48-2.134-0.67-3.08-0.17-0.876-0.34-1.861-0.5-2.898zm-172.43 2.744c0.327-0.029 0.6982 0.004 1.1211 0.099 1.64 0.37 2.191 1.355 1.791 3.131-0.0388 0.171-0.086 0.376-0.1485 0.576l-4.0996-0.921c-0.5637-0.128-0.6354-0.286-0.4941-0.918 0.2775-1.23 0.8489-1.88 1.8301-1.967zm127.41 6.859c-0.08 0.004-0.1 0.051-0.14 0.156-0.13 0.392-0.39 0.428-0.8 0.45l-1.74 0.087c-0.29 0.016-0.35-0.06-0.42-0.234-0.06-0.15-0.09-0.231-0.17-0.226-0.05-0.003-0.07 0.012-0.07 0.041 0.01 0.147 0.03 0.295 0.04 0.443 0.01 0.147 0 0.296 0 0.443 0.01 0.039 0.02 0.058 0.12 0.108l2.12 0.97c0.1 0.049 0.19 0.085 0.2 0.114 0 0.015-0.09 0.053-0.28 0.162l-1.95 1.062c-0.07 0.038-0.08 0.071-0.07 0.17 0 0.148 0.03 0.294 0.04 0.442s-0.01 0.295 0 0.443c0 0.045 0.02 0.064 0.08 0.061 0.08-0.004 0.09-0.074 0.16-0.241 0.08-0.186 0.35-0.257 0.54-0.267l1.85-0.096c0.27-0.014 0.42 0.044 0.57 0.293 0.04 0.071 0.07 0.129 0.15 0.125s0.07-0.059 0.07-0.107c-0.01-0.173-0.05-0.343-0.06-0.514-0.01-0.173 0.02-0.348 0.01-0.52 0-0.05-0.01-0.132-0.09-0.129-0.08 0.004-0.11 0.061-0.13 0.141-0.11 0.346-0.37 0.433-0.68 0.449l-1.29 0.067c-0.1 0.005-0.12-0.005-0.12-0.035 0-0.035 0.07-0.071 0.13-0.104l2.04-1.066c0.05-0.027 0.1-0.057 0.1-0.116 0-0.058-0.08-0.103-0.15-0.134l-2.06-0.875c-0.13-0.058-0.2-0.086-0.2-0.12 0-0.02 0.09-0.028 0.13-0.031l1.58-0.08c0.27-0.014 0.36-0.01 0.42 0.111 0.04 0.092 0.07 0.135 0.15 0.131 0.08-0.003 0.07-0.102 0.07-0.201-0.03-0.195-0.04-0.393-0.07-0.588 0.01-0.197 0-0.394 0.01-0.592-0.01-0.098-0.01-0.197-0.09-0.193zm-83.478 0.957c-0.079-0.012-0.092 0.061-0.115 0.211-0.053 0.326-0.065 0.658-0.117 0.983-0.053 0.326-0.145 0.647-0.196 0.972-0.037 0.229 0.168 0.485 0.352 0.578 0.092 0.05 0.275 0.121 0.371 0.137 0.049 0.008 0.097-0.006 0.105-0.064 0.013-0.078-0.145-0.153-0.279-0.344s-0.245-0.499-0.162-1.01c0.041-0.257 0.105-0.311 0.465-0.254l0.832 0.133c0.121 0.019 0.178 0.073 0.14 0.307-0.045 0.282-0.097 0.419-0.316 0.509-0.107 0.043-0.251 0.018-0.264 0.092-0.015 0.093 0.054 0.102 0.121 0.113 0.147 0.024 0.296 0.029 0.442 0.051 0.146 0.024 0.287 0.066 0.433 0.09 0.068 0.011 0.138 0.022 0.149-0.051 0.007-0.048-0.004-0.071-0.131-0.146-0.196-0.113-0.246-0.339-0.201-0.621 0.031-0.194 0.069-0.271 0.146-0.26l0.852 0.135c0.189 0.031 0.228 0.074 0.207 0.209l-0.053 0.316c-0.09 0.57-0.239 0.689-0.551 0.674-0.045-0.003-0.134-0.001-0.146 0.076-0.011 0.074 0.024 0.095 0.078 0.104 0.108 0.016 0.218 0.015 0.324 0.031 0.108 0.017 0.21 0.053 0.317 0.07 0.097 0.015 0.113-0.081 0.131-0.193 0.06-0.374 0.082-0.755 0.142-1.129 0.064-0.374 0.11-0.751 0.219-1.117 0.015-0.098 0.028-0.181-0.051-0.194-0.077-0.012-0.138 0.083-0.182 0.231-0.056 0.201-0.425 0.166-0.664 0.129l-1.832-0.293c-0.277-0.044-0.39-0.092-0.441-0.266-0.03-0.094-0.048-0.198-0.125-0.209zm-0.645 3.862c-0.077-0.009-0.082 0.043-0.087 0.093-0.019 0.171 0.001 0.347-0.018 0.518s-0.075 0.34-0.094 0.512c-0.01 0.088-0.023 0.204 0.074 0.214 0.094 0.01 0.102-0.152 0.155-0.271 0.098-0.226 0.289-0.29 0.529-0.264l1.746 0.19c0.118 0.012 0.132 0.027 0.129 0.052-0.002 0.024-0.107 0.117-0.221 0.209l-2.377 1.87c-0.136 0.11-0.271 0.223-0.277 0.277-0.006 0.059 0.051 0.085 0.266 0.107l2.359 0.256c0.27 0.029 0.404 0.118 0.514 0.387 0.031 0.077 0.05 0.138 0.129 0.146 0.077 0.009 0.082-0.045 0.087-0.093 0.019-0.172-0.001-0.347 0.016-0.518 0.019-0.171 0.077-0.34 0.096-0.512 0.01-0.087 0.02-0.178-0.059-0.187-0.077-0.009-0.126 0.12-0.17 0.244-0.101 0.296-0.401 0.283-0.724 0.248l-1.112-0.121c-0.068-0.008-0.136-0.019-0.132-0.059 0.003-0.028 0.074-0.091 0.15-0.152l2.168-1.682c0.054-0.038 0.073-0.071 0.084-0.179 0.015-0.147 0.012-0.296 0.027-0.444 0.016-0.146 0.052-0.291 0.069-0.437 0.003-0.035 0.006-0.064-0.073-0.072-0.078-0.009-0.1 0.058-0.195 0.21-0.107 0.172-0.386 0.218-0.572 0.198l-1.846-0.201c-0.269-0.029-0.403-0.123-0.512-0.393-0.032-0.078-0.05-0.138-0.129-0.146zm83.713 0.871c-0.04 0.005-0.09 0.029-0.08 0.087 0.01 0.078 0.18 0.11 0.36 0.258 0.18 0.149 0.37 0.414 0.43 0.928 0.02 0.26-0.02 0.33-0.39 0.369l-0.83 0.094c-0.13 0.014-0.19-0.025-0.22-0.26-0.03-0.284-0.02-0.429 0.17-0.574 0.09-0.069 0.24-0.085 0.23-0.158-0.01-0.093-0.08-0.086-0.15-0.078-0.14 0.016-0.29 0.052-0.44 0.068-0.14 0.016-0.29 0.013-0.44 0.029-0.07 0.008-0.13 0.014-0.13 0.088 0.01 0.049 0.03 0.069 0.17 0.108 0.22 0.055 0.32 0.261 0.36 0.544 0.02 0.196 0 0.281-0.08 0.29l-0.85 0.093c-0.19 0.022-0.24-0.007-0.26-0.144l-0.03-0.319c-0.07-0.572 0.05-0.729 0.35-0.796 0.04-0.01 0.13-0.035 0.12-0.114 0-0.073-0.05-0.082-0.1-0.076-0.11 0.011-0.21 0.042-0.32 0.055-0.11 0.011-0.22 0.003-0.33 0.015-0.09 0.01-0.08 0.109-0.07 0.221 0.04 0.378 0.12 0.75 0.16 1.127 0.04 0.378 0.09 0.752 0.09 1.135 0.01 0.097 0.02 0.18 0.1 0.172 0.08-0.009 0.11-0.116 0.11-0.27 0-0.209 0.37-0.272 0.61-0.299l1.84-0.203c0.28-0.031 0.4-0.015 0.5 0.139 0.05 0.084 0.1 0.177 0.18 0.168 0.07-0.009 0.06-0.081 0.05-0.233-0.04-0.328-0.11-0.651-0.15-0.98-0.03-0.328-0.03-0.661-0.07-0.988-0.02-0.232-0.29-0.424-0.49-0.465-0.1-0.024-0.3-0.043-0.4-0.031zm-123.11 0.009l-0.0254 0.649c2.0135 0.465 2.5735 1.38 2.4925 3.428-0.055 1.398-0.551 1.974-1.793 1.925l-3.133-0.123c0.0037-0.087 0.0072-0.156 0.0097-0.226 0.0575-1.435 0.5533-1.994 2.0508-2.198l0.0273-0.701c-0.7362 0.024-1.5443 0.029-2.4355-0.008-0.77-0.03-1.5391-0.077-2.2891-0.177l-0.0293 0.734c1.4575 0.338 1.9288 0.865 1.875 2.246-0.0037 0.088-0.0086 0.192-0.0136 0.297l-3.8477-0.152c-0.5075-0.02-0.5389-0.127-0.5039-1 0.09-2.258 0.3681-3.121 2.3105-3.483l0.0274-0.718-3.0606-0.122c-0.0237 2.803-0.086 4.834-0.1347 6.077-0.0463 1.172-0.1293 2.36-0.24807 3.582l0.68357 0.027c0.0025-0.053 0.0027-0.088 0.0039-0.141 0.0463-1.155 0.5153-1.487 1.7578-1.437l6.4727 0.258c1.7488 0.068 2.2858 0.264 2.2268 1.734l0.736 0.029c-0.05-0.947-0.011-1.928 0.027-2.925 0.014-0.35 0.028-0.684 0.041-1.034 0.065-1.643 0.151-3.777 0.325-6.398l-3.5531-0.143zm163.34 3.395c-0.57 0.044-1.25 0.071-2.01 0.084-0.57 0.009-1.14 0.003-1.7-0.024l0.02 0.823 0.86 0.195c-0.83 0.889-1.11 1.875-1.09 3.17 0.04 2.539 1.56 4.161 3.8 4.125 2.17-0.035 3-1.52 4.19-4.219 0.55-1.269 0.86-2.011 1.85-2.027 0.91-0.015 1.59 0.639 1.61 1.707 0.02 1.454-0.9 2.608-2.56 2.984l0.01 0.787c1.19-0.071 2.29-0.104 3.29-0.121l-0.01-0.824-0.76-0.197c0.65-0.816 0.88-1.713 0.86-2.869-0.03-2.118-1.36-3.515-3.36-3.483-1.94 0.031-2.89 1.184-3.87 3.477-0.67 1.57-1.1 2.436-2.27 2.455-1.15 0.019-1.9-0.776-1.93-2.106-0.02-1.558 1.01-2.609 3.09-3.132l-0.02-0.805zm-41.54 0.902c-0.04 0.006-0.08 0.018-0.11 0.028l-0.49 0.132c-0.16 0.043-0.17 0.061-0.15 0.182 0.08 0.485 0.2 0.98 0.29 1.475 0.08 0.496 0.12 0.991 0.21 1.486 0.02 0.112 0.05 0.134 0.13 0.129l0.51-0.035c0.05-0.004 0.12-0.008 0.16-0.014 0.03-0.005 0.06-0.03 0.05-0.098-0.01-0.053-0.03-0.08-0.06-0.08-0.5-0.041-0.57-0.242-0.65-0.709-0.04-0.233-0.02-0.354 0.15-0.384l2.25-0.379c0.39-0.065 0.44 0.266 0.54 0.414 0.03 0.05 0.03 0.134 0.14 0.115 0.08-0.013 0.07-0.07 0.06-0.129-0.05-0.286-0.14-0.575-0.19-0.871s-0.06-0.601-0.11-0.887c-0.01-0.057-0.02-0.116-0.1-0.103-0.1 0.018-0.07 0.098-0.09 0.156-0.05 0.172 0.01 0.501-0.37 0.566l-2.25 0.379c-0.16 0.027-0.23-0.048-0.28-0.314-0.07-0.466-0.07-0.682 0.39-0.885 0.03-0.009 0.04-0.036 0.03-0.094-0.01-0.038-0.04-0.085-0.06-0.08zm-82.016 0.119c-0.044-0.005-0.117 0.008-0.162 0.012l-0.701 0.074c-0.07 0.009-0.087 0.088-0.104 0.135-0.101 0.29-0.241 0.547-0.285 0.859-0.104 0.727 0.448 1.183 0.92 1.25 1.346 0.192 1.164-1.68 1.992-1.562 0.278 0.039 0.414 0.322 0.371 0.619-0.052 0.371-0.433 0.74-0.804 0.801-0.128 0.022-0.21 0.03-0.223 0.117-0.009 0.069 0.03 0.107 0.094 0.115 0.054 0.008 0.509-0.007 0.785 0.041 0.064 0.009 0.097-0.002 0.105-0.066 0.007-0.044-0.046-0.159-0.039-0.213 0.023-0.161 0.246-0.383 0.305-0.797 0.083-0.575-0.313-1.05-0.814-1.121-1.332-0.189-1.205 1.676-1.998 1.563-0.357-0.05-0.526-0.359-0.477-0.702 0.065-0.457 0.456-0.76 0.867-0.886 0.078-0.024 0.213-0.028 0.227-0.125 0.011-0.084-0.025-0.109-0.059-0.114zm-1.486 3.524c-0.078-0.014-0.09 0.059-0.113 0.209-0.054 0.326-0.07 0.658-0.124 0.984-0.053 0.325-0.145 0.645-0.199 0.971-0.037 0.229 0.166 0.485 0.35 0.58 0.091 0.05 0.273 0.12 0.371 0.137 0.049 0.007 0.097-0.005 0.105-0.063 0.014-0.079-0.143-0.152-0.277-0.344-0.132-0.192-0.244-0.501-0.16-1.011 0.042-0.258 0.107-0.311 0.467-0.252l0.832 0.136c0.121 0.02 0.177 0.073 0.138 0.307-0.046 0.283-0.099 0.419-0.318 0.508-0.107 0.042-0.251 0.017-0.264 0.09-0.015 0.092 0.053 0.104 0.122 0.115 0.146 0.024 0.294 0.029 0.439 0.053 0.146 0.023 0.289 0.068 0.435 0.092 0.068 0.011 0.134 0.021 0.147-0.051 0.009-0.049-0.003-0.072-0.129-0.147-0.196-0.112-0.245-0.34-0.199-0.621 0.031-0.195 0.07-0.274 0.148-0.262l0.85 0.141c0.19 0.031 0.227 0.073 0.205 0.209l-0.051 0.316c-0.094 0.568-0.243 0.689-0.554 0.672-0.044-0.002-0.135-0.001-0.149 0.077-0.011 0.072 0.026 0.092 0.08 0.101 0.106 0.018 0.215 0.016 0.322 0.033 0.107 0.018 0.211 0.055 0.319 0.073 0.097 0.015 0.112-0.081 0.131-0.194 0.061-0.374 0.084-0.755 0.146-1.129 0.066-0.373 0.113-0.749 0.223-1.115 0.016-0.097 0.03-0.181-0.047-0.193-0.079-0.013-0.14 0.083-0.184 0.23-0.058 0.2-0.425 0.164-0.664 0.125l-1.834-0.301c-0.276-0.045-0.388-0.095-0.439-0.267-0.029-0.095-0.048-0.197-0.125-0.209zm86.502 0.547c-0.1-0.015-0.3-0.018-0.4 0.002-0.05 0.008-0.08 0.038-0.07 0.095 0.01 0.078 0.19 0.094 0.38 0.227 0.19 0.134 0.4 0.383 0.5 0.891 0.05 0.256 0.01 0.329-0.35 0.398l-0.83 0.162c-0.12 0.024-0.19-0.009-0.23-0.24-0.06-0.281-0.06-0.426 0.12-0.586 0.08-0.078 0.23-0.105 0.21-0.178-0.02-0.091-0.08-0.078-0.15-0.064-0.15 0.027-0.29 0.074-0.43 0.103-0.15 0.029-0.3 0.037-0.44 0.065-0.07 0.013-0.14 0.027-0.12 0.099 0.01 0.049 0.02 0.065 0.17 0.092 0.22 0.036 0.35 0.233 0.4 0.514 0.04 0.192 0.03 0.28-0.05 0.295l-0.84 0.166c-0.19 0.036-0.24 0.012-0.27-0.123l-0.06-0.317c-0.11-0.565-0.01-0.73 0.29-0.822 0.04-0.014 0.13-0.046 0.11-0.123-0.01-0.073-0.05-0.08-0.11-0.068-0.1 0.02-0.21 0.06-0.31 0.082-0.11 0.02-0.22 0.023-0.33 0.043-0.09 0.018-0.07 0.115-0.05 0.226 0.07 0.371 0.18 0.737 0.25 1.11 0.07 0.372 0.16 0.741 0.18 1.123 0.02 0.096 0.04 0.179 0.12 0.164 0.07-0.015 0.1-0.126 0.09-0.28-0.02-0.207 0.34-0.301 0.58-0.347l1.82-0.356c0.27-0.054 0.4-0.047 0.5 0.098 0.06 0.077 0.12 0.169 0.19 0.154 0.08-0.016 0.07-0.089 0.04-0.238-0.07-0.324-0.17-0.641-0.23-0.965s-0.09-0.655-0.15-0.978c-0.04-0.228-0.33-0.399-0.53-0.424zm1.08 3.82c-0.07 0.013-0.1 0.057-0.1 0.121 0.01 0.109-0.04 0.393-0.34 0.442l-2.19 0.355c-0.16 0.026-0.34 0.047-0.43-0.133-0.02-0.046-0.07-0.172-0.15-0.16-0.07 0.012-0.06 0.084-0.05 0.152 0.03 0.194 0.1 0.383 0.13 0.577 0.03 0.195 0.03 0.396 0.06 0.589 0.02 0.142 0.05 0.284 0.12 0.27 0.08-0.013 0.11-0.055 0.1-0.119-0.02-0.208 0.04-0.388 0.34-0.438l2.19-0.355c0.16-0.026 0.35-0.024 0.44 0.156 0.02 0.046 0.06 0.126 0.14 0.113 0.08-0.012 0.07-0.085 0.05-0.177-0.03-0.195-0.1-0.382-0.13-0.577s-0.03-0.395-0.05-0.546c-0.03-0.14-0.05-0.283-0.13-0.27zm-88.879 1.813c-0.054-0.009-0.082 0.017-0.102 0.128-0.037 0.219-0.034 0.444-0.072 0.663-0.037 0.217-0.115 0.429-0.152 0.646-0.024 0.141-0.046 0.282 0.031 0.295 0.073 0.012 0.113-0.019 0.133-0.08 0.062-0.195 0.191-0.497 0.482-0.447l2.344 0.4c0.116 0.02 0.194 0.152 0.164 0.322-0.079 0.466-0.37 0.735-0.836 0.656-0.374-0.063-0.647-0.305-0.576-0.722 0.036-0.209 0.032-0.244-0.022-0.254-0.165-0.028-0.284 0.43-0.302 0.543-0.095 0.552 0.237 1.132 0.81 1.232 0.694 0.12 0.992-0.429 1.102-1.07 0.044-0.258 0.082-0.725 0.121-0.957 0.04-0.234 0.137-0.559 0.166-0.732 0.021-0.123 0.006-0.153-0.057-0.165-0.058-0.01-0.099 0.023-0.129 0.083-0.097 0.188-0.115 0.359-0.504 0.292l-2.156-0.369c-0.156-0.026-0.31-0.116-0.351-0.312-0.012-0.053-0.022-0.14-0.094-0.152zm-44.832 0.525l-0.709 0.098c0.1288 0.671 0.2453 1.38 0.3516 2.144 0.1087 0.785 0.1955 1.525 0.2617 2.265l0.7109-0.1c-0.135-1.1 0.0036-1.51 0.6973-1.6 0.3125-0.05 1.0599-0.01 2.1387 0.25l5.0489 1.22-5.7169 3.11c-0.4937 0.27-0.7954 0.38-0.9004 0.39-0.5887 0.09-0.8414-0.32-0.9726-1.26-0.005-0.03-0.0107-0.08-0.0157-0.12l-0.7109 0.1c0.255 1.57 0.4466 2.7 0.5391 3.35 0.0962 0.7 0.2045 1.6 0.3007 2.67l0.7266-0.1c-0.1225-1.14 0.2041-1.46 1.0078-1.91l9.3843-5.34-0.117-0.85-9.863-2.514c-1.2275-0.307-1.9108-0.512-2.1621-1.803zm167.34 0.435c-0.05 0.949-0.2 1.918-0.34 2.902-0.06 0.35-0.11 0.68-0.16 1.02-0.24 1.63-0.56 3.74-1.02 6.33l3.51 0.53 0.1-0.64c-1.95-0.68-2.41-1.65-2.1-3.68 0.21-1.39 0.76-1.9 1.99-1.72l3.1 0.47c-0.01 0.08-0.02 0.15-0.03 0.22-0.22 1.42-0.77 1.92-2.28 1.96l-0.1 0.69c0.73 0.06 1.53 0.15 2.42 0.28 0.76 0.11 1.52 0.25 2.25 0.43l0.11-0.73c-1.41-0.5-1.82-1.07-1.62-2.44 0.02-0.08 0.03-0.19 0.05-0.29l3.81 0.57c0.5 0.08 0.52 0.18 0.39 1.05-0.34 2.23-0.71 3.06-2.68 3.21l-0.11 0.71 3.03 0.45c0.33-2.78 0.62-4.79 0.8-6.02 0.18-1.16 0.39-2.33 0.64-3.532l-0.68-0.102c0 0.052-0.01 0.086-0.01 0.137-0.18 1.147-0.68 1.427-1.91 1.237l-6.4-0.963c-1.73-0.26-2.25-0.514-2.03-1.969l-0.73-0.11zm-36.42 0.432c-0.07 0.01-0.06 0.077-0.06 0.121 0.02 0.166 0.08 0.328 0.1 0.494 0.02 0.167 0 0.338 0.03 0.504 0 0.049 0.01 0.108 0.09 0.098 0.05-0.008 0.07-0.044 0.1-0.123 0.05-0.135 0.05-0.278 0.11-0.365 0.03-0.049 0.08-0.075 0.18-0.086 0.07-0.009 0.17 0.016 0.31 0.058l1.57 0.471c0.09 0.027 0.13 0.047 0.14 0.076 0 0.025-0.04 0.051-0.2 0.145l-1.43 0.867c-0.09 0.05-0.18 0.12-0.27 0.13-0.11 0.01-0.21 0.01-0.26-0.13-0.03-0.08-0.06-0.15-0.14-0.14s-0.07 0.09-0.06 0.13c0.02 0.22 0.09 0.43 0.12 0.65 0.02 0.22 0.01 0.45 0.04 0.67 0.01 0.07 0.01 0.11 0.09 0.1s0.07-0.06 0.11-0.13c0.03-0.09 0.07-0.24 0.28-0.37l2.56-1.564c0.15-0.094 0.2-0.135 0.19-0.207-0.01-0.054-0.02-0.113-0.3-0.198l-2.53-0.791c-0.31-0.095-0.45-0.131-0.57-0.23-0.1-0.086-0.12-0.189-0.2-0.18zm-37.253 2.25c-0.449-0.12-0.307 0.96-0.367 1.38-0.057 0.4-0.058 0.79-0.198 0.73-0.176-0.07-0.395-0.65-0.453-0.36-0.056 0.28 0.143 0.84 0.143 1.32s0.084 0.82 0.14 1.02c0.057 0.2 0.171 0.59 0.284 0.42 0 0 0.393-2.42 0.478-2.73s0.312-1.7-0.027-1.78zm-0.904 0.19c-0.113 0-0.141 0.03-0.168 0.15-0.029 0.11 0.027 0.53 0.027 0.73s0.085 0.11 0.17 0c0.084-0.11 0.14-0.23 0.14-0.4s-0.026-0.48-0.169-0.48zm-45.28 0.41c-0.078-0.01-0.124 0.1-0.148 0.25-0.031 0.2-0.401 0.22-0.643 0.21l-1.857-0.06c-0.28-0.01-0.397-0.04-0.471-0.2-0.041-0.1-0.071-0.19-0.15-0.2-0.079 0-0.083 0.08-0.088 0.23-0.01 0.33 0.022 0.66 0.012 0.99-0.012 0.33-0.061 0.66-0.071 0.99-0.007 0.23 0.227 0.46 0.422 0.53 0.098 0.03 0.288 0.08 0.387 0.08 0.049 0 0.093-0.02 0.096-0.07 0.002-0.08-0.163-0.14-0.321-0.31-0.157-0.17-0.307-0.46-0.291-0.98 0.008-0.26 0.065-0.32 0.43-0.31l0.84 0.03c0.122 0 0.186 0.05 0.179 0.28-0.008 0.29-0.043 0.43-0.25 0.55-0.1 0.05-0.247 0.05-0.25 0.12-0.002 0.1 0.068 0.1 0.137 0.1 0.148 0 0.296-0.01 0.444-0.01 0.147 0.01 0.293 0.03 0.441 0.04 0.069 0 0.138 0 0.141-0.07 0.001-0.05-0.013-0.07-0.149-0.13-0.21-0.09-0.286-0.31-0.277-0.59 0.005-0.2 0.032-0.28 0.111-0.28l0.861 0.03c0.193 0 0.236 0.04 0.231 0.18l-0.01 0.32c-0.017 0.57-0.15 0.71-0.461 0.74-0.044 0-0.132 0.01-0.135 0.09-0.002 0.08 0.035 0.09 0.09 0.09 0.108 0.01 0.218-0.01 0.326-0.01 0.108 0.01 0.217 0.03 0.325 0.03 0.098 0.01 0.099-0.09 0.103-0.21 0.011-0.37-0.015-0.75-0.004-1.13 0.018-0.38 0.013-0.76 0.075-1.14 0.002-0.1 0.004-0.18-0.075-0.18zm86.347 1.43l-1.04 0.26c-0.06-0.01-0.11-0.03-0.17-0.03-0.49 0-0.93 0.19-1.26 0.5-0.32 0.31-0.53 0.74-0.53 1.22s0.21 0.91 0.53 1.22c0.33 0.3 0.77 0.49 1.26 0.49s0.94-0.19 1.26-0.49c0.33-0.31 0.53-0.74 0.53-1.22 0-0.62-0.34-1.16-0.84-1.46h-0.01l0.28-0.07c0.44 0.07 0.72 0.32 0.9 0.61 0.19 0.3 0.26 0.66 0.26 0.84 0 0.08-0.03 0.23-0.07 0.38-0.06 0.23-0.15 0.5-0.23 0.71-0.04 0.1-0.08 0.19-0.1 0.25-0.03 0.06-0.04 0.1-0.04 0.1l0.37 0.16c0.01 0 0.12-0.27 0.24-0.6 0.05-0.16 0.11-0.34 0.16-0.52 0.04-0.17 0.08-0.33 0.08-0.48-0.01-0.27-0.09-0.67-0.32-1.05s-0.63-0.73-1.23-0.82h-0.03zm-1.21 0.78c0.25 0 0.48 0.07 0.67 0.18 0.35 0.21 0.58 0.58 0.58 0.99 0 0.32-0.14 0.61-0.36 0.82-0.23 0.21-0.54 0.35-0.89 0.35-0.34 0-0.66-0.14-0.88-0.35s-0.36-0.5-0.36-0.82 0.14-0.61 0.36-0.82c0.22-0.22 0.54-0.35 0.88-0.35zm-85.256 1.36l-0.506 0.01c-0.053 0.01-0.124 0-0.168 0.01-0.03 0-0.055 0.03-0.047 0.1 0.007 0.05 0.025 0.08 0.055 0.08 0.499 0.06 0.563 0.26 0.623 0.73 0.029 0.24 0.006 0.36-0.17 0.38l-2.267 0.29c-0.387 0.05-0.424-0.29-0.518-0.44-0.031-0.05-0.025-0.13-0.133-0.12-0.078 0.01-0.072 0.07-0.064 0.13 0.036 0.28 0.113 0.58 0.15 0.88 0.038 0.29 0.036 0.6 0.072 0.89 0.008 0.05 0.017 0.11 0.094 0.1 0.108-0.01 0.082-0.09 0.1-0.15 0.054-0.17 0.006-0.5 0.392-0.55l2.268-0.29c0.161-0.02 0.224 0.06 0.258 0.33 0.059 0.47 0.047 0.68-0.422 0.87-0.028 0.01-0.041 0.03-0.033 0.09 0.005 0.04 0.032 0.09 0.06 0.08 0.034 0 0.072-0.01 0.106-0.02l0.494-0.11c0.164-0.04 0.176-0.06 0.16-0.18-0.061-0.49-0.164-0.98-0.227-1.48-0.062-0.5-0.084-1-0.148-1.5-0.014-0.11-0.04-0.13-0.129-0.13zm0.627 3.85c-0.075 0.03-0.093 0.07-0.078 0.14 0.049 0.2 0.014 0.38-0.277 0.48l-2.11 0.67c-0.155 0.05-0.344 0.08-0.459-0.09-0.028-0.04-0.077-0.11-0.152-0.09s-0.054 0.09-0.025 0.18c0.06 0.19 0.156 0.37 0.216 0.56 0.06 0.18 0.083 0.38 0.129 0.53 0.044 0.13 0.087 0.27 0.162 0.25 0.075-0.03 0.097-0.08 0.082-0.14-0.023-0.1-0.017-0.39 0.274-0.48l2.111-0.68c0.154-0.05 0.338-0.09 0.451 0.07 0.029 0.04 0.093 0.16 0.168 0.14 0.075-0.03 0.053-0.1 0.032-0.16-0.06-0.19-0.157-0.37-0.217-0.55-0.06-0.19-0.083-0.39-0.143-0.58-0.044-0.13-0.088-0.27-0.164-0.25zm0.619 2.01c-0.026-0.01-0.054 0-0.094 0.02l-0.449 0.23c-0.048 0.03-0.112 0.05-0.148 0.08-0.025 0.01-0.04 0.05-0.002 0.1 0.029 0.05 0.057 0.07 0.086 0.06 0.476-0.16 0.622-0.01 0.879 0.39 0.128 0.2 0.16 0.32 0.011 0.41l-1.919 1.24c-0.328 0.21-0.505-0.07-0.657-0.17-0.05-0.03-0.082-0.11-0.174-0.05-0.066 0.04-0.033 0.09-0.002 0.14 0.158 0.25 0.354 0.48 0.516 0.73 0.164 0.25 0.294 0.53 0.451 0.77 0.033 0.05 0.065 0.1 0.131 0.06 0.091-0.06 0.032-0.12 0.024-0.18-0.025-0.18-0.211-0.46 0.117-0.67l1.92-1.24c0.136-0.08 0.226-0.04 0.373 0.18 0.256 0.4 0.338 0.6-0.006 0.97-0.023 0.02-0.021 0.05 0.012 0.1 0.021 0.03 0.064 0.06 0.089 0.04 0.03-0.01 0.06-0.04 0.086-0.06l0.395-0.31c0.132-0.11 0.138-0.13 0.07-0.23-0.266-0.42-0.573-0.82-0.845-1.24-0.273-0.42-0.509-0.87-0.782-1.29-0.03-0.05-0.056-0.07-0.082-0.08zm-35.052 0.46l-0.67 0.21c0.335 1.28 0.063 1.71-1.161 2.09l-6.8023 2.06c-1.0725 0.32-1.598 0.1-1.918-0.96-0.0162-0.05-0.0366-0.11-0.0566-0.18l-0.6875 0.21c0.3487 1.03 0.6665 2.01 0.9453 2.93 0.265 0.87 0.5482 1.87 0.8457 2.97l0.6875-0.21c-0.0213-0.07-0.0358-0.12-0.0508-0.17-0.3712-1.22-0.0801-1.53 1.0586-1.88l6.8031-2.06c1.29-0.39 1.67-0.29 2.125 1.09l0.67-0.2c-0.384-1.14-0.702-2.13-0.946-2.93-0.187-0.62-0.471-1.62-0.843-2.97zm150.69 2.7c-0.41 1.36-0.76 2.44-1.03 3.21-0.3 0.87-0.63 1.79-1.02 2.75l0.68 0.24c0.49-1.33 0.9-1.6 1.95-1.24l8.21 2.82c-0.08 0.29-0.16 0.56-0.24 0.81-0.59 1.7-1.45 2.28-3.25 1.97l-0.23 0.65 3.23 0.94c0.61-1.92 1.33-4.06 2.14-6.43 0.53-1.54 1.04-2.97 1.57-4.29l-3.15-1.23-0.23 0.66c1.66 0.89 1.93 1.81 1.31 3.62-0.07 0.21-0.15 0.43-0.25 0.67l-8.21-2.82c-1.04-0.36-1.19-0.74-0.8-2.09l-0.68-0.24zm-38.55 0.49c-0.1-0.03-0.12 0.06-0.16 0.17-0.11 0.36-0.18 0.74-0.29 1.1s-0.21 0.73-0.37 1.08c-0.03 0.09-0.05 0.17 0.03 0.2 0.07 0.02 0.14-0.07 0.21-0.21 0.08-0.19 0.44-0.11 0.67-0.04l1.78 0.54c0.27 0.08 0.37 0.15 0.4 0.33 0.02 0.09 0.02 0.2 0.1 0.22 0.07 0.02 0.09-0.05 0.14-0.19 0.09-0.32 0.15-0.65 0.25-0.96 0.09-0.32 0.22-0.62 0.32-0.94 0.07-0.22-0.1-0.5-0.27-0.62-0.08-0.06-0.26-0.15-0.35-0.18-0.05-0.02-0.09-0.01-0.11 0.04-0.02 0.08 0.12 0.18 0.23 0.38 0.11 0.21 0.17 0.53 0.02 1.03-0.07 0.25-0.14 0.29-0.49 0.18l-0.81-0.24c-0.11-0.03-0.16-0.1-0.09-0.32 0.08-0.28 0.15-0.4 0.38-0.46 0.11-0.03 0.25 0.01 0.27-0.06 0.03-0.09-0.04-0.11-0.1-0.13-0.15-0.04-0.29-0.07-0.43-0.11-0.15-0.04-0.28-0.1-0.42-0.15-0.07-0.02-0.13-0.04-0.16 0.04-0.01 0.04 0 0.06 0.12 0.16 0.18 0.13 0.19 0.36 0.11 0.64-0.06 0.19-0.11 0.26-0.18 0.24l-0.83-0.25c-0.18-0.06-0.21-0.1-0.17-0.24l0.09-0.3c0.17-0.55 0.33-0.65 0.64-0.6 0.04 0.01 0.13 0.02 0.15-0.05 0.03-0.07-0.01-0.1-0.06-0.11-0.1-0.04-0.21-0.05-0.32-0.08-0.1-0.03-0.2-0.08-0.3-0.11zm-1.18 3.57c-0.03 0.01-0.04 0.05-0.06 0.1-0.16 0.47-0.28 0.96-0.44 1.44s-0.36 0.93-0.52 1.41c-0.03 0.11-0.02 0.14 0.06 0.18l0.46 0.2c0.05 0.02 0.11 0.06 0.16 0.07 0.02 0.01 0.06 0 0.08-0.06s0.01-0.09-0.01-0.1c-0.43-0.27-0.4-0.49-0.25-0.94 0.08-0.22 0.16-0.32 0.32-0.26l2.17 0.72c0.37 0.13 0.26 0.44 0.28 0.62 0 0.06-0.04 0.14 0.06 0.17 0.08 0.02 0.1-0.03 0.12-0.09 0.09-0.27 0.15-0.57 0.24-0.85 0.1-0.29 0.23-0.56 0.32-0.84 0.02-0.05 0.04-0.11-0.03-0.14-0.11-0.03-0.12 0.06-0.16 0.1-0.12 0.13-0.22 0.45-0.59 0.32l-2.17-0.72c-0.15-0.05-0.18-0.15-0.09-0.41 0.15-0.45 0.25-0.63 0.76-0.6 0.02 0.01 0.05-0.01 0.07-0.07 0.01-0.03 0.01-0.09-0.02-0.1s-0.07-0.01-0.11-0.02l-0.49-0.11c-0.08-0.02-0.13-0.03-0.16-0.02zm-107.25 3.8l-8.222 4.11c-1.3153 0.66-1.9655 0.69-2.6468-0.48l-0.6113 0.31c0.4775 0.87 0.8072 1.5 1.0097 1.9 0.2275 0.46 0.5098 1.06 0.8536 1.83l0.6108-0.31c-0.532-1.1-0.1784-1.73 1.122-2.38l4.681-2.34-4.017 9.82c0.383 0.65 0.689 1.26 0.939 1.76 0.298 0.59 0.548 1.1 0.721 1.56l0.609-0.31c-0.297-0.67-0.328-1.09-0.086-1.62l0.141-0.3 6.594-3.3c1.252-0.63 1.871-0.64 2.607 0.48l0.658-0.33c-0.257-0.4-0.502-0.85-0.752-1.35-0.258-0.51-0.649-1.3-1.127-2.37l-0.642 0.32c0.486 1.01 0.11 1.75-1.174 2.39l-5.608 2.8 4.778-11.31-0.438-0.88zm109.13 1.01c-0.07-0.02-0.11 0.04-0.19 0.15-0.12 0.16-0.36 0.15-0.57 0.17l-2.94 0.24c-0.06 0.01-0.11 0.02-0.12 0.04-0.02 0.04 0.02 0.08 0.12 0.18l2.22 2.3c0.06 0.06 0.09 0.12 0.12 0.22 0.02 0.08 0.01 0.2 0.08 0.23 0.08 0.03 0.1-0.03 0.12-0.09 0.06-0.16 0.08-0.33 0.14-0.49 0.05-0.15 0.15-0.3 0.2-0.46 0.03-0.07 0.05-0.12-0.02-0.15-0.08-0.02-0.18 0.13-0.26 0.25-0.06 0.09-0.19 0.17-0.26 0.15-0.2-0.08-0.62-0.38-0.54-0.61l0.26-0.71c0.08-0.23 0.13-0.31 0.21-0.35 0.1-0.04 0.55-0.03 0.66 0.01 0.12 0.04 0.2 0.15 0.18 0.28-0.02 0.07 0 0.14 0.06 0.16 0.03 0.01 0.07-0.01 0.09-0.07 0.08-0.22 0.13-0.46 0.2-0.66 0.08-0.21 0.19-0.42 0.27-0.64 0.03-0.07 0.05-0.12-0.03-0.15zm-1.84 1.1c0.01 0.01 0 0.06-0.05 0.21l-0.18 0.5c-0.04 0.12-0.09 0.19-0.13 0.18-0.01-0.01-0.06-0.04-0.11-0.1l-0.52-0.54c-0.02-0.01-0.11-0.09-0.1-0.11 0.02-0.04 0.05-0.04 0.13-0.05l0.75-0.09c0.08-0.01 0.18-0.01 0.21 0zm-2.78 1.89c-0.03 0.02-0.05 0.05-0.07 0.1-0.18 0.46-0.33 0.95-0.52 1.41-0.18 0.47-0.4 0.92-0.58 1.39-0.04 0.1-0.03 0.14 0.05 0.18l0.45 0.23c0.05 0.02 0.11 0.06 0.15 0.07 0.03 0.01 0.06 0 0.09-0.06 0.02-0.05 0.01-0.08-0.01-0.1-0.41-0.29-0.37-0.5-0.2-0.94 0.09-0.22 0.17-0.32 0.34-0.25l2.12 0.84c0.36 0.14 0.24 0.45 0.24 0.62 0.01 0.06-0.04 0.14 0.07 0.18 0.07 0.03 0.09-0.03 0.11-0.08 0.11-0.27 0.18-0.57 0.29-0.85s0.26-0.54 0.36-0.81c0.03-0.06 0.05-0.11-0.03-0.14-0.1-0.04-0.11 0.04-0.16 0.08-0.13 0.13-0.24 0.44-0.61 0.3l-2.12-0.84c-0.15-0.06-0.17-0.16-0.07-0.41 0.17-0.44 0.28-0.62 0.78-0.56 0.03 0.01 0.06-0.01 0.08-0.06 0.01-0.04 0.01-0.09-0.02-0.1-0.03-0.02-0.07-0.03-0.1-0.03l-0.49-0.14c-0.08-0.03-0.12-0.04-0.15-0.03zm-65.375 1.49c-0.055 0.02-0.071 0.07-0.064 0.14 0.017 0.21 0.092 0.37-0.272 0.52l-2.019 0.83c-0.147 0.06-0.325 0.06-0.465-0.08-0.038-0.04-0.093-0.1-0.16-0.08-0.05 0.02-0.062 0.06-0.02 0.17 0.085 0.2 0.206 0.39 0.291 0.59 0.084 0.21 0.134 0.43 0.219 0.63 0.054 0.14 0.109 0.27 0.182 0.24 0.068-0.03 0.083-0.08 0.068-0.14-0.05-0.2-0.103-0.52 0.17-0.64l2.199-0.91c0.109-0.04 0.244 0.03 0.311 0.19 0.18 0.44 0.076 0.82-0.36 1-0.35 0.15-0.712 0.09-0.873-0.3-0.081-0.2-0.102-0.23-0.152-0.21-0.155 0.06-0.011 0.52 0.031 0.62 0.215 0.52 0.804 0.83 1.34 0.61 0.651-0.27 0.613-0.89 0.365-1.49-0.1-0.24-0.315-0.66-0.406-0.87-0.09-0.22-0.181-0.55-0.248-0.71-0.048-0.12-0.078-0.13-0.137-0.11zm102.36 0.18c-0.66 1.26-1.21 2.26-1.61 2.95-0.46 0.81-0.96 1.65-1.52 2.53l0.63 0.35c0.73-1.21 1.18-1.4 2.14-0.85l7.54 4.3c-0.13 0.27-0.26 0.52-0.39 0.75-0.89 1.57-1.85 1.97-3.56 1.33l-0.34 0.6 3 1.53c0.95-1.78 2.05-3.75 3.3-5.92 0.8-1.41 1.57-2.73 2.34-3.92l-2.87-1.8-0.34 0.6c1.46 1.18 1.56 2.15 0.61 3.8-0.11 0.2-0.23 0.4-0.37 0.62l-7.54-4.31c-0.96-0.55-1.03-0.95-0.4-2.2l-0.62-0.36zm-38.34 2.81c-0.43 0.05-0.7 0.49-0.9 0.94-0.09 0.2-0.2 0.55-0.31 0.79-0.14 0.32-0.23 0.43-0.28 0.54-0.04 0.1-0.03 0.13 0.02 0.15 0.07 0.03 0.12 0.01 0.15-0.04 0.11-0.18 0.26-0.3 0.52-0.18l2.03 0.89c0.15 0.07 0.3 0.2 0.27 0.4 0 0.05-0.01 0.14 0.06 0.17s0.1-0.04 0.13-0.1c0.08-0.18 0.12-0.38 0.2-0.56s0.2-0.34 0.28-0.52c0.09-0.21 0.1-0.27 0.04-0.3-0.07-0.03-0.12-0.01-0.15 0.05-0.1 0.18-0.25 0.3-0.62 0.14l-0.76-0.34c-0.06-0.03-0.07-0.07-0.02-0.18 0.08-0.17 0.22-0.19 0.4-0.21l1.19-0.1c0.22-0.02 0.38-0.14 0.44-0.27 0.07-0.15 0.28-0.69 0.08-0.78-0.05-0.02-0.09-0.01-0.11 0.04-0.02 0.04-0.03 0.1-0.05 0.15-0.02 0.04-0.06 0.06-0.13 0.09-0.34 0.11-1.47 0.21-1.54 0.18-0.04-0.02-0.01-0.16-0.02-0.27-0.03-0.24-0.12-0.46-0.42-0.59-0.19-0.08-0.35-0.11-0.5-0.09zm-62.415 0.64c-0.022-0.01-0.044-0.01-0.065 0.01-0.061 0.03-0.078 0.08-0.049 0.14 0.098 0.18 0.083 0.38-0.187 0.52l-1.887 0.99c-0.144 0.08-0.313 0.15-0.486 0.05-0.113-0.06-0.159-0.13-0.229-0.09s-0.026 0.12 0.028 0.22c0.085 0.16 0.205 0.3 0.289 0.46 0.155 0.3 0.436 0.91 0.589 1.2 0.179 0.34 0.639 0.54 0.997 0.35 0.096-0.05 0.153-0.13 0.121-0.19-0.058-0.11-0.226-0.08-0.448-0.15-0.222-0.08-0.495-0.26-0.736-0.71-0.117-0.23-0.105-0.3 0.225-0.47l1.886-1c0.144-0.07 0.338-0.11 0.479 0.03 0.036 0.04 0.097 0.1 0.166 0.07 0.07-0.04 0.036-0.11 0.004-0.17-0.088-0.16-0.233-0.35-0.346-0.57-0.11-0.21-0.189-0.44-0.299-0.65-0.012-0.02-0.031-0.04-0.052-0.04zm62.305 0.06c0.09 0.01 0.17 0.03 0.25 0.07 0.45 0.19 0.57 0.45 0.39 0.85-0.13 0.29-0.23 0.24-0.28 0.22l-0.89-0.39c-0.16-0.07-0.22-0.15-0.11-0.39 0.13-0.29 0.38-0.39 0.64-0.36zm-1.81 2.7c-0.09-0.05-0.14 0.04-0.19 0.14-0.18 0.33-0.33 0.68-0.51 1.01-0.19 0.33-0.36 0.67-0.59 0.98-0.05 0.09-0.09 0.16-0.02 0.2s0.16-0.03 0.25-0.16c0.12-0.17 0.46-0.01 0.67 0.11l1.62 0.89c0.25 0.14 0.34 0.22 0.33 0.4 0 0.1-0.02 0.2 0.05 0.24s0.1-0.02 0.18-0.16c0.16-0.29 0.28-0.59 0.44-0.88s0.35-0.56 0.51-0.85c0.11-0.2 0.01-0.52-0.13-0.67-0.07-0.07-0.22-0.2-0.31-0.25-0.04-0.02-0.09-0.03-0.12 0.03s0.09 0.19 0.15 0.41c0.06 0.23 0.06 0.55-0.19 1.01-0.13 0.23-0.2 0.26-0.52 0.08l-0.74-0.41c-0.11-0.06-0.14-0.12-0.03-0.33 0.14-0.25 0.23-0.36 0.47-0.37 0.12-0.01 0.24 0.06 0.28 0 0.05-0.08-0.01-0.12-0.07-0.15-0.13-0.07-0.27-0.12-0.4-0.2-0.13-0.07-0.25-0.16-0.38-0.23-0.06-0.03-0.12-0.06-0.16 0-0.02 0.04-0.02 0.07 0.08 0.18 0.14 0.17 0.11 0.4-0.02 0.65-0.1 0.18-0.16 0.24-0.23 0.2l-0.76-0.42c-0.16-0.09-0.18-0.14-0.12-0.26l0.16-0.28c0.27-0.51 0.45-0.57 0.74-0.45 0.04 0.02 0.13 0.05 0.17-0.02 0.03-0.07 0-0.1-0.04-0.13-0.1-0.05-0.2-0.08-0.3-0.13-0.09-0.06-0.18-0.13-0.27-0.18zm-57.745 1.93c-0.034 0-0.082 0.01-0.153 0.02l-3.164 0.45c-0.087 0.01-0.154 0.01-0.25-0.03-0.079-0.03-0.173-0.11-0.238-0.07s-0.033 0.09 0.006 0.15c0.093 0.14 0.222 0.26 0.316 0.39 0.094 0.14 0.156 0.3 0.25 0.44 0.044 0.07 0.074 0.11 0.139 0.07 0.065-0.05-0.004-0.22-0.049-0.36-0.034-0.1-0.026-0.25 0.035-0.29 0.175-0.12 0.664-0.29 0.805-0.08l0.424 0.62c0.136 0.2 0.171 0.29 0.154 0.38-0.019 0.1-0.286 0.46-0.389 0.53-0.105 0.07-0.243 0.07-0.336-0.02-0.045-0.06-0.113-0.08-0.162-0.05-0.024 0.02-0.035 0.06 0.004 0.12 0.133 0.2 0.299 0.37 0.42 0.55s0.22 0.4 0.354 0.59c0.043 0.07 0.071 0.11 0.136 0.06 0.067-0.04 0.037-0.11-0.006-0.24-0.06-0.19 0.099-0.38 0.204-0.55l1.523-2.53c0.032-0.06 0.052-0.11 0.041-0.12-0.013-0.02-0.031-0.03-0.064-0.03zm-0.977 0.38c0.019 0.03 0.001 0.06-0.033 0.13l-0.369 0.65c-0.043 0.08-0.096 0.16-0.121 0.18-0.017 0.01-0.058-0.04-0.147-0.17l-0.299-0.44c-0.069-0.1-0.104-0.18-0.068-0.2 0.012-0.01 0.07-0.02 0.146-0.03l0.741-0.11c0.025-0.01 0.132-0.04 0.15-0.01zm56.952 0.93c-0.32 0.03-0.64 0.29-1 0.69-0.16 0.18-0.29 0.39-0.45 0.57s-0.35 0.33-0.51 0.51c-0.1 0.12-0.11 0.15-0.06 0.2s0.18-0.05 0.24-0.11c0.09-0.11 0.23-0.12 0.62 0.22l1.46 1.29c0.16 0.15 0.28 0.27 0.22 0.48-0.03 0.09-0.09 0.15-0.02 0.21 0.05 0.05 0.12-0.03 0.2-0.12s0.1-0.17 0.21-0.3c0.15-0.17 0.36-0.34 0.67-0.69 0.79-0.89 0.78-1.5 0.37-1.86-0.56-0.51-0.98-0.24-1.36 0.13l-0.01-0.01c0.18-0.35 0.29-0.72-0.04-1.02-0.18-0.15-0.36-0.21-0.54-0.19zm-0.36 0.64c0.17 0 0.35 0.08 0.49 0.21 0.3 0.26 0.25 0.53 0 0.81-0.18 0.2-0.33 0.27-0.5 0.12l-0.46-0.4c-0.17-0.16-0.23-0.29-0.04-0.51 0.15-0.17 0.33-0.24 0.51-0.23zm-92.055 0.28c-1.142 0.09-2.12 0.72-3.31 1.67l-3.145 2.51c-1.052 0.85-1.652 0.85-2.527-0.02l-0.532 0.43c0.355 0.39 0.818 0.94 1.354 1.61 0.459 0.57 0.87 1.12 1.248 1.64l0.506-0.4c-0.703-1.07-0.539-1.65 0.541-2.52l3.146-2.51c1.039-0.84 1.845-1.37 2.737-1.43 0.877-0.05 1.853 0.47 2.685 1.5 1.421 1.78 1.02 3.04-1.004 4.66l-3.554 2.85c-1.134 0.91-1.599 0.94-2.565-0.12l-0.547 0.43c0.753 0.86 1.422 1.67 2.024 2.42 0.557 0.7 1.168 1.49 1.797 2.33l0.533-0.43c-0.84-1.19-0.618-1.61 0.572-2.56l3.336-2.67c1.34-1.07 2.101-2 2.232-3.07 0.164-1.36-0.339-2.66-1.488-4.1-1.246-1.56-2.658-2.31-4.039-2.22zm128.1 0.04l-0.52 0.64 0.53 0.7c-1.21 0.15-2.06 0.72-2.88 1.72-1.61 1.96-1.5 4.18 0.23 5.6 1.68 1.38 3.28 0.78 5.92-0.51 1.25-0.61 1.96-0.98 2.73-0.34 0.7 0.57 0.8 1.51 0.12 2.33-0.92 1.13-2.38 1.41-3.88 0.62l-0.5 0.61c0.95 0.72 1.81 1.4 2.59 2.04l0.52-0.64-0.45-0.64c1.02-0.2 1.78-0.74 2.51-1.63 1.35-1.64 1.23-3.57-0.31-4.83-1.5-1.24-2.97-0.96-5.2 0.15-1.53 0.76-2.41 1.15-3.32 0.4-0.89-0.73-0.95-1.82-0.11-2.85 0.99-1.2 2.46-1.33 4.38-0.39l0.51-0.63c-0.47-0.33-1.01-0.75-1.59-1.23-0.44-0.37-0.87-0.74-1.28-1.12zm-90.068 0.5c-0.445-0.05-0.944 0.11-1.447 0.57-0.767 0.72-0.607 1.77-0.043 2.37 0.705 0.76 1.658 0.6 1.766 0.5 0.032-0.03 0.041-0.06 0.013-0.09-0.053-0.06-0.176-0.05-0.259-0.05-0.369-0.01-0.784-0.15-1.067-0.45-0.452-0.49-0.26-1.33 0.295-1.84 0.785-0.73 1.357-0.64 1.783-0.18 0.293 0.31 0.369 0.81 0.18 1.41-0.011 0.04-0.061 0.16-0.021 0.2 0.033 0.04 0.098 0.01 0.138-0.03 0.043-0.04 0.101-0.12 0.162-0.2l0.442-0.51c0.015-0.02 0.025-0.05-0.006-0.08-0.094-0.1-0.174 0.04-0.258-0.05-0.09-0.1-0.183-0.58-0.553-0.98-0.288-0.31-0.679-0.55-1.125-0.59zm55.278 0c0.16-0.02 0.33 0.04 0.52 0.21 0.37 0.33 0.33 0.71 0 1.07-0.29 0.34-0.43 0.24-0.6 0.09l-0.67-0.6c-0.1-0.09-0.08-0.18-0.01-0.26 0.24-0.26 0.49-0.49 0.76-0.51zm-3.67 1.08c-0.03 0.02-0.05 0.04-0.08 0.06-0.14 0.14-0.26 0.3-0.41 0.43-0.14 0.14-0.31 0.24-0.46 0.37-0.1 0.1-0.21 0.19-0.16 0.25 0.06 0.06 0.11 0.06 0.16 0.02 0.16-0.13 0.35-0.18 0.55 0.05l1.5 1.63c0.11 0.12 0.21 0.28 0.11 0.46-0.03 0.04-0.07 0.12-0.02 0.17 0.05 0.06 0.11 0.01 0.18-0.05 0.14-0.13 0.26-0.3 0.41-0.43 0.14-0.13 0.31-0.24 0.42-0.34s0.22-0.19 0.17-0.25c-0.06-0.06-0.11-0.06-0.16-0.02-0.09 0.07-0.35 0.18-0.56-0.04l-1.5-1.64c-0.11-0.12-0.22-0.26-0.12-0.43 0.02-0.05 0.1-0.16 0.05-0.22-0.03-0.02-0.05-0.03-0.08-0.02zm-48.902 1.12c-0.049-0.02-0.09-0.03-0.114 0-0.047 0.07-0.036 0.12 0.012 0.16 0.156 0.14 0.234 0.31 0.051 0.55l-1.342 1.77c-0.099 0.13-0.239 0.25-0.428 0.18-0.049-0.01-0.128-0.04-0.176 0.02-0.047 0.06 0.011 0.11 0.086 0.16 0.157 0.12 0.338 0.21 0.494 0.33 0.158 0.12 0.289 0.27 0.411 0.36 0.113 0.09 0.228 0.17 0.275 0.11 0.048-0.06 0.038-0.11-0.01-0.16-0.081-0.07-0.239-0.31-0.054-0.55l1.339-1.77c0.099-0.12 0.22-0.27 0.409-0.2 0.047 0.02 0.169 0.08 0.216 0.02 0.048-0.07-0.011-0.11-0.066-0.15-0.156-0.12-0.338-0.21-0.494-0.33-0.158-0.12-0.29-0.27-0.447-0.39-0.057-0.04-0.114-0.08-0.162-0.11zm46.032 1.35c-0.03 0.01-0.06 0.03-0.09 0.05-0.15 0.12-0.31 0.29-0.5 0.44s-0.4 0.26-0.59 0.41c-0.04 0.03-0.04 0.08-0.01 0.12 0.04 0.06 0.09 0.06 0.14 0.02 0.17-0.12 0.36-0.14 0.55 0.1l1.31 1.68c0.09 0.13 0.19 0.29 0.12 0.48-0.04 0.12-0.1 0.17-0.05 0.24 0.05 0.06 0.13 0 0.22-0.07 0.14-0.11 0.26-0.25 0.4-0.36 0.26-0.2 0.82-0.59 1.08-0.79 0.31-0.23 0.42-0.72 0.17-1.04-0.06-0.09-0.15-0.13-0.21-0.09-0.09 0.08-0.04 0.24-0.07 0.47s-0.16 0.53-0.57 0.85c-0.2 0.15-0.27 0.15-0.5-0.14l-1.31-1.69c-0.1-0.13-0.16-0.31-0.05-0.48 0.03-0.04 0.08-0.11 0.03-0.17-0.02-0.03-0.05-0.04-0.07-0.03zm-44.05 0.2c-0.036 0-0.065 0.01-0.09 0.05-0.037 0.06 0.01 0.1 0.135 0.24 0.116 0.13 0.151 0.21-0.111 0.63l-1.018 1.58c-0.104 0.16-0.26 0.39-0.451 0.34-0.088-0.02-0.179-0.04-0.219 0.02-0.029 0.04 0.028 0.08 0.098 0.13 0.121 0.07 0.279 0.13 0.4 0.2 0.136 0.09 0.41 0.31 0.836 0.59 0.826 0.53 1.974 0.54 2.621-0.47 0.626-0.98 0.19-1.8-0.851-2.47-0.204-0.13-0.43-0.23-0.633-0.36-0.204-0.13-0.384-0.29-0.588-0.42-0.052-0.04-0.094-0.06-0.129-0.06zm1.037 0.93c0.052 0.02 0.111 0.04 0.176 0.08 0.755 0.49 0.624 1.39 0.222 2.01-0.34 0.53-1.042 0.97-1.648 0.58-0.344-0.22-0.447-0.37-0.219-0.73l1.106-1.73c0.104-0.16 0.207-0.25 0.363-0.21zm38.783 1.9c-0.27 0-0.6 0.12-0.98 0.32-0.21 0.12-0.41 0.26-0.62 0.37-0.22 0.12-0.45 0.19-0.66 0.31-0.14 0.07-0.16 0.09-0.13 0.16 0.04 0.06 0.18 0.02 0.26-0.02 0.13-0.07 0.26-0.04 0.51 0.43l0.9 1.72c0.1 0.19 0.17 0.35 0.04 0.52-0.06 0.08-0.14 0.11-0.09 0.2 0.03 0.06 0.13 0.01 0.23-0.05 0.1-0.05 0.15-0.12 0.3-0.2 0.2-0.11 0.46-0.2 0.87-0.41 1.05-0.55 1.26-1.13 1.01-1.61-0.35-0.67-0.83-0.58-1.33-0.36v-0.01c0.29-0.27 0.53-0.57 0.33-0.96-0.15-0.29-0.36-0.41-0.64-0.41zm-34.4 0.24c-0.04-0.02-0.081 0.01-0.194 0.09l-2.498 2c-0.068 0.06-0.127 0.09-0.228 0.1-0.084 0.02-0.207-0.01-0.24 0.07-0.034 0.07 0.019 0.09 0.082 0.12 0.151 0.07 0.319 0.11 0.47 0.18 0.152 0.07 0.287 0.18 0.438 0.25 0.071 0.03 0.119 0.06 0.152-0.01 0.034-0.08-0.113-0.19-0.22-0.28-0.082-0.07-0.153-0.21-0.122-0.28 0.092-0.19 0.429-0.58 0.655-0.47l0.681 0.32c0.219 0.1 0.295 0.16 0.325 0.25 0.035 0.09-0.012 0.54-0.065 0.65-0.055 0.12-0.174 0.19-0.301 0.15-0.068-0.02-0.137-0.01-0.162 0.05-0.012 0.02 0 0.07 0.063 0.1 0.214 0.1 0.442 0.16 0.638 0.26 0.197 0.09 0.394 0.22 0.608 0.33 0.071 0.03 0.117 0.05 0.15-0.02 0.034-0.07-0.028-0.12-0.131-0.21-0.146-0.13-0.107-0.37-0.107-0.58l0.033-2.95c-0.001-0.06-0.01-0.11-0.027-0.12zm33.77 0.22c0.28-0.02 0.52 0.16 0.65 0.41 0.18 0.35 0.04 0.58-0.29 0.76-0.23 0.12-0.41 0.13-0.51-0.07l-0.28-0.53c-0.11-0.21-0.12-0.35 0.14-0.49 0.1-0.05 0.2-0.08 0.29-0.08zm-34.489 0.61c0.031 0.01 0.033 0.05 0.037 0.12l0.014 0.76c0.002 0.09-0.005 0.18-0.018 0.21-0.007 0.02-0.065 0-0.207-0.07l-0.482-0.23c-0.111-0.05-0.18-0.1-0.16-0.14 0.006-0.01 0.046-0.05 0.107-0.1l0.582-0.47c0.02-0.02 0.1-0.1 0.127-0.08zm2.9 0.25c-0.042-0.02-0.066-0.01-0.083 0.05-0.023 0.08 0.04 0.11 0.175 0.23 0.152 0.14 0.136 0.41 0.084 0.59l-0.506 1.79c-0.075 0.26-0.175 0.38-0.459 0.44-0.082 0.02-0.143 0.03-0.166 0.11-0.021 0.07 0.031 0.09 0.079 0.1 0.166 0.05 0.342 0.06 0.507 0.1 0.167 0.05 0.32 0.13 0.487 0.18 0.047 0.01 0.128 0.04 0.15-0.04 0.021-0.07-0.022-0.12-0.09-0.17-0.291-0.22-0.293-0.48-0.209-0.78l0.354-1.25c0.026-0.09 0.043-0.11 0.07-0.1 0.034 0.01 0.047 0.08 0.057 0.16l0.355 2.27c0.011 0.05 0.02 0.11 0.076 0.13 0.058 0.01 0.123-0.04 0.174-0.1l1.492-1.67c0.097-0.1 0.144-0.16 0.178-0.15 0.019 0 0 0.09-0.014 0.14l-0.429 1.51c-0.073 0.26-0.108 0.34-0.241 0.36-0.101 0.02-0.15 0.03-0.171 0.11-0.023 0.07 0.073 0.1 0.168 0.12 0.195 0.04 0.385 0.09 0.58 0.13 0.183 0.07 0.373 0.12 0.556 0.2 0.095 0.02 0.19 0.05 0.211-0.03 0.022-0.07-0.015-0.11-0.103-0.17-0.329-0.25-0.279-0.51-0.168-0.91l0.474-1.68c0.08-0.28 0.17-0.3 0.356-0.31 0.162-0.01 0.25-0.01 0.271-0.09 0.019-0.05 0.01-0.08-0.017-0.09-0.143-0.04-0.289-0.06-0.432-0.1-0.142-0.04-0.279-0.1-0.422-0.14-0.037-0.01-0.058 0-0.138 0.08l-1.6 1.69c-0.079 0.08-0.143 0.16-0.172 0.15-0.014 0-0.022-0.09-0.062-0.31l-0.381-2.19c-0.014-0.07-0.044-0.1-0.139-0.12-0.141-0.04-0.289-0.06-0.432-0.11-0.142-0.04-0.277-0.09-0.42-0.13zm29.239 0.03c-0.02 0-0.05 0.01-0.07 0.01-0.16 0.06-0.3 0.15-0.46 0.2-0.16 0.06-0.33 0.07-0.49 0.13-0.05 0.01-0.1 0.03-0.08 0.11 0.02 0.05 0.06 0.06 0.14 0.07 0.15 0.03 0.29 0 0.39 0.04 0.05 0.02 0.08 0.06 0.11 0.15 0.03 0.07 0.02 0.18 0.01 0.32l-0.14 1.63c-0.01 0.1-0.02 0.15-0.05 0.16-0.02 0-0.05-0.03-0.18-0.17l-1.14-1.22c-0.06-0.07-0.15-0.16-0.18-0.24-0.04-0.11-0.05-0.21 0.08-0.29 0.06-0.04 0.13-0.08 0.11-0.16-0.03-0.07-0.11-0.04-0.15-0.03-0.2 0.07-0.4 0.18-0.61 0.25s-0.43 0.11-0.64 0.18c-0.07 0.02-0.12 0.04-0.09 0.11 0.03 0.08 0.08 0.06 0.15 0.07 0.1 0.02 0.25 0.02 0.42 0.21l2.06 2.18c0.12 0.13 0.17 0.17 0.24 0.14 0.05-0.01 0.1-0.04 0.13-0.33l0.26-2.63c0.03-0.33 0.04-0.47 0.11-0.61 0.06-0.12 0.16-0.15 0.13-0.23-0.01-0.04-0.03-0.05-0.06-0.05zm3.33 0.34c0.22 0 0.42 0.11 0.57 0.4 0.24 0.44 0.06 0.78-0.37 1.01-0.4 0.21-0.49 0.07-0.6-0.14l-0.41-0.79c-0.07-0.12-0.01-0.2 0.08-0.25 0.25-0.13 0.5-0.23 0.73-0.23zm-7.74 1.08c-0.04 0.01-0.14 0.1-0.2 0.11-0.16 0.02-0.43-0.13-0.85-0.06-0.569 0.09-0.905 0.61-0.823 1.11 0.215 1.33 1.953 0.65 2.083 1.44 0.06 0.36-0.18 0.61-0.52 0.67-0.46 0.07-0.87-0.21-1.108-0.57-0.047-0.06-0.092-0.19-0.19-0.18-0.082 0.02-0.096 0.06-0.09 0.09 0.007 0.05 0.041 0.11 0.059 0.15l0.281 0.65c0.028 0.07 0.108 0.06 0.158 0.06 0.31 0.01 0.6 0.07 0.91 0.02 0.72-0.12 0.99-0.78 0.91-1.25-0.21-1.34-1.95-0.61-2.079-1.44-0.045-0.28 0.189-0.49 0.479-0.54 0.37-0.06 0.84 0.2 1.01 0.53 0.06 0.12 0.09 0.19 0.17 0.18 0.07-0.01 0.09-0.06 0.08-0.13 0-0.05-0.15-0.48-0.19-0.76-0.01-0.06-0.03-0.09-0.09-0.08zm-62.995 6.5c-1.401 0-2.539 1.12-2.539 2.52s1.121 2.54 2.522 2.54c1.4 0 2.539-1.15 2.539-2.54 0-1.4-1.139-2.52-2.522-2.52zm107.08 0.28c-1.4 0-2.54 1.12-2.54 2.52s1.12 2.54 2.52 2.54 2.54-1.15 2.54-2.54c0-1.4-1.14-2.52-2.52-2.52zm-95.487 2.72l-0.338 0.64c1.198 0.65 1.298 1.06 0.746 2.1l-3.414 6.41c-0.575 1.09-1.026 1.26-2.209 0.65l-0.353 0.67c0.781 0.35 1.495 0.69 2.129 1.03 1.051 0.56 1.968 1.15 2.818 1.6 3.03 1.61 5.102 1.44 6.072-0.38 0.872-1.64 0.103-3.18-2.006-4.66 2.01 0.74 3.415 0.41 4.088-0.86 0.889-1.67-0.083-3.23-2.943-4.76-0.819-0.43-1.766-0.82-2.725-1.33-0.478-0.25-1.095-0.62-1.865-1.11zm82.427 0.14c-0.87 0.49-1.48 0.83-1.89 1.03-0.45 0.24-1.05 0.52-1.81 0.88l0.31 0.6c1.1-0.54 1.73-0.2 2.39 1.1l2.39 4.65-9.86-3.91c-0.64 0.4-1.25 0.71-1.75 0.96-0.59 0.31-1.09 0.56-1.55 0.74l0.31 0.61c0.67-0.31 1.09-0.34 1.62-0.11l0.31 0.14 3.36 6.56c0.64 1.25 0.67 1.87-0.44 2.61l0.33 0.65c0.4-0.26 0.84-0.5 1.34-0.76 0.51-0.26 1.29-0.66 2.36-1.15l-0.33-0.64c-1 0.49-1.74 0.13-2.4-1.15l-2.86-5.58 11.36 4.66 0.88-0.45-4.2-8.18c-0.68-1.31-0.71-1.96 0.45-2.65l-0.32-0.61zm-78.927 2.77c0.099 0 0.247 0.06 0.502 0.19 1.283 0.68 1.596 1.59 0.955 2.79-0.772 1.45-1.657 1.74-3.187 0.93-0.109-0.06-0.224-0.14-0.348-0.21l1.867-3.51c0.062-0.12 0.112-0.18 0.211-0.19zm-2.473 4.44c0.194 0.08 0.365 0.17 0.52 0.26 1.669 0.88 2.074 1.95 1.268 3.47-0.782 1.47-1.741 1.89-2.901 1.27-0.926-0.49-0.942-1.13-0.267-2.4l1.38-2.6zm16.174 0.55c-2.902-0.09-5.223 1.56-6.054 4.37-1.024 3.46 0.74 6.63 4.502 7.74 1.913 0.57 3.617 0.49 5.197-0.28 1.536-0.75 2.558-1.99 3.07-3.72 0.501-1.69 0.327-3.26-0.49-4.69-0.884-1.52-2.235-2.5-4.133-3.07-0.721-0.21-1.422-0.32-2.092-0.35zm46.046 0.6c-0.65 0.01-1.33 0.11-2.05 0.3-3.88 1.04-5.79 4.19-4.86 7.68 0.93 3.48 4.09 5.27 7.88 4.25 1.93-0.51 3.34-1.47 4.29-2.95 0.92-1.44 1.14-3.03 0.68-4.77-0.46-1.71-1.42-2.95-2.87-3.75-0.96-0.52-1.98-0.77-3.07-0.76zm-45.112 0.39c0.259 0.02 0.531 0.07 0.814 0.16 2.233 0.66 2.912 2.74 1.918 6.1-1.015 3.42-2.508 4.77-4.758 4.1-2.232-0.66-2.923-2.71-1.939-6.03 0.9-3.04 2.149-4.47 3.965-4.33zm43.992 0.64c1.84-0.09 3.22 1.37 4.01 4.33 0.92 3.46 0.35 5.38-1.92 5.99-2.25 0.6-3.91-0.79-4.8-4.14-0.94-3.5-0.39-5.44 1.9-6.05 0.28-0.08 0.55-0.12 0.81-0.13zm-30.279 1.39c-1.711 0.1-2.921 1.2-3.106 2.94-0.205 1.93 0.825 3.01 2.983 4.26 1.475 0.86 2.284 1.38 2.16 2.55-0.123 1.15-1.002 1.79-2.324 1.65-1.55-0.16-2.467-1.31-2.735-3.44l-0.8-0.08c-0.027 0.58-0.082 1.26-0.161 2.01-0.061 0.57-0.136 1.13-0.23 1.68l0.818 0.09 0.299-0.84c0.783 0.93 1.726 1.33 3.014 1.47 2.525 0.27 4.318-1.04 4.554-3.27 0.229-2.16-1.142-3.16-3.677-4.67-1.193-0.7-1.892-1.1-1.787-2.09 0.096-0.9 0.829-1.49 1.89-1.38 1.445 0.15 2.478 1.21 2.651 2.9l0.783 0.09c0.074-1.19 0.172-2.29 0.277-3.29l-0.818-0.08-0.287 0.73c-0.732-0.75-1.594-1.09-2.743-1.21-0.263-0.03-0.517-0.04-0.761-0.02zm19.779 0.29c-2.01 0.17-4.265 0.32-6.764 0.48-1.626 0.09-3.146 0.17-4.566 0.18l0.062 3.39 0.702-0.04c0.185-1.88 0.936-2.48 2.841-2.6 0.228-0.01 0.454-0.03 0.717-0.02l0.526 8.66c0.066 1.11-0.234 1.39-1.627 1.54l0.043 0.72c1.412-0.14 2.549-0.23 3.353-0.28 0.926-0.05 1.906-0.09 2.94-0.1l-0.043-0.72c-1.418 0.05-1.821-0.22-1.887-1.32l-0.525-8.67c0.296-0.04 0.575-0.07 0.837-0.09 1.8-0.11 2.661 0.47 3.061 2.25l0.69-0.04-0.36-3.34z" transform="matrix(.8 0 0 -.8 388.58 698.35)"/></g></g></svg>
